<svg height="383.79" viewBox="0 0 960 383.79" width="960" xmlns="http://www.w3.org/2000/svg" xmlns:xlink="http://www.w3.org/1999/xlink"><clipPath id="a"><path d="m225.06 178.5h532v166h-532z"/></clipPath><linearGradient id="b" gradientTransform="matrix(1 0 0 -1 0 414)" gradientUnits="userSpaceOnUse" x1="483.83" x2="483.7" y1="114" y2="81.91"><stop offset="0" stop-color="#fff" stop-opacity="0"/><stop offset=".91" stop-color="#fff"/></linearGradient><path d="m712.25 242.13a148 148 0 0 0 11.75-23.7 1.27 1.27 0 0 0 0-.94 1.35 1.35 0 0 0 -1.61-.73 149.4 149.4 0 0 0 -23.72 10.77l-.26.15a156 156 0 0 0 -29.15 22.78c-.85.9-2.22 2.41-4.13 4.55-1.65 1.93-2.81 3.32-3.48 4.19l-9.45-.76a1.4 1.4 0 0 0 -.53.11 1.26 1.26 0 0 0 -.45.26l-17 16.51a1.26 1.26 0 0 0 -.42.91 1.29 1.29 0 0 0 .37.91 1.33 1.33 0 0 0 .94.39h15.06l5.39 5.71-10.24 10a1.15 1.15 0 0 0 -.38.88 1.25 1.25 0 0 0 .34.94 1.12 1.12 0 0 0 .91.36 1.21 1.21 0 0 0 .94-.34l10.27-10 4.35 4.07-.9 15.77a1.49 1.49 0 0 0 .77 1.26 1.21 1.21 0 0 0 .75.09 1.25 1.25 0 0 0 .7-.36l16.83-16.35a1.15 1.15 0 0 0 .36-.91l.12-10.82c.6-.63 1.85-1.78 3.75-3.47s3.32-2.88 4.55-3.91l.07-.05a151.23 151.23 0 0 0 23.42-28.1.26.26 0 0 0 .11-.14m-29.83 30.26a50.32 50.32 0 0 0 -4.19 3.94q-7.49 5.49-15 10.54l-4-3.61 6.37-6.21a1.24 1.24 0 0 0 .36-.91 1.3 1.3 0 0 0 -1.25-1.3 1.38 1.38 0 0 0 -.92.38l-6.4 6.23-5-5.35q7-10 10.75-14.66v-.09l.06-.05v-.09q.75-1 3.72-4.5 2.84-3.17 4.08-4.47a153.69 153.69 0 0 1 27.86-21.92l10.54 11.29a148.87 148.87 0 0 1 -22.43 26.92q-1.83 1.53-4.52 3.88m16.42-21.52a7 7 0 0 0 .87-9.72 6.77 6.77 0 0 0 -4.64-2.48h-.13a6.84 6.84 0 0 0 -5 1.62 6.57 6.57 0 0 0 -2.42 4.65 6.67 6.67 0 0 0 1.55 5.07 6.48 6.48 0 0 0 4.68 2.39 6.53 6.53 0 0 0 5-1.52m-4.78-1h-.03a4 4 0 0 1 -2.91-1.48 4.29 4.29 0 0 1 -1-3.19 4.17 4.17 0 0 1 1.54-2.91 4.34 4.34 0 0 1 3.17-1 4.36 4.36 0 0 1 2.93 1.57 4.16 4.16 0 0 1 1 3.13 4.27 4.27 0 0 1 -1.54 3 4 4 0 0 1 -3.11.78z" fill="#e17107"/><path d="m682.41 272.42c1.79-1.57 3.29-2.86 4.52-3.88a148.71 148.71 0 0 0 22.58-26.9l-10.51-11.29a153.69 153.69 0 0 0 -27.86 21.92q-1.25 1.3-4.08 4.47-3 3.47-3.72 4.5v.09l-.06.05v.09q-3.76 4.63-10.75 14.66l5 5.35 6.4-6.23a1.38 1.38 0 0 1 .92-.38 1.3 1.3 0 0 1 1.25 1.3 1.24 1.24 0 0 1 -.36.91l-6.46 6.21 3.94 3.64q7.48-5 15-10.54a50.32 50.32 0 0 1 4.19-3.94m18.87-26.29a6.62 6.62 0 0 1 -2.43 4.71 6.53 6.53 0 0 1 -5 1.52 6.48 6.48 0 0 1 -4.68-2.39 6.67 6.67 0 0 1 -1.55-5.07 6.57 6.57 0 0 1 2.42-4.65 6.84 6.84 0 0 1 5-1.62h.06a6.77 6.77 0 0 1 4.64 2.48 6.64 6.64 0 0 1 1.56 5m-7.3 3.67h.06a4 4 0 0 0 3.13-.93 4.27 4.27 0 0 0 1.54-3 4.16 4.16 0 0 0 -1-3.13 4.36 4.36 0 0 0 -2.93-1.57 4.34 4.34 0 0 0 -3.17 1 4.17 4.17 0 0 0 -1.54 2.91 4.29 4.29 0 0 0 1 3.19 4 4 0 0 0 2.93 1.55z" fill="#fff"/><path d="m872 44.6a.94.94 0 0 0 -.34-.42.78.78 0 0 0 -.47-.13 1.06 1.06 0 0 0 -.52.13 1.15 1.15 0 0 0 -.3.42l-1.64 4.4-4.92.17a.88.88 0 0 0 -.78.56.89.89 0 0 0 0 .51.84.84 0 0 0 .26.43l3.69 3-1.37 4.55a.74.74 0 0 0 0 .51.87.87 0 0 0 .3.43.73.73 0 0 0 .47.17.82.82 0 0 0 .51-.17l4-2.62 4 2.83a1 1 0 0 0 .51.18 1 1 0 0 0 .82-.61.89.89 0 0 0 0-.51l-1.37-4.71 4-2.83a.82.82 0 0 0 .34-.95.94.94 0 0 0 -.3-.43.73.73 0 0 0 -.47-.17l-5-.21-1.59-4.55m-3.47 8.11-2.36-1.92 3.26-.09a.73.73 0 0 0 .47-.17.86.86 0 0 0 .34-.39l1-2.65 1 2.78a.87.87 0 0 0 .3.43.9.9 0 0 0 .47.17l3 .09-2.44 1.71a1.11 1.11 0 0 0 -.3.43.77.77 0 0 0 0 .52l.85 3-2.52-1.8a.81.81 0 0 0 -.48-.13.88.88 0 0 0 -.47.13l-2.57 1.67.86-2.83a.89.89 0 0 0 0-.51.87.87 0 0 0 -.3-.43m44.89 22.3a.93.93 0 0 0 -1 .21l-3.36 3.53-4.56-1.74a1.1 1.1 0 0 0 -.51 0 1 1 0 0 0 -.65.77 1.13 1.13 0 0 0 .09.51l2.44 4.21-3 3.68a1 1 0 0 0 -.18.47 1 1 0 0 0 .13.52.73.73 0 0 0 .39.34.65.65 0 0 0 .51 0l4.72-.85 2.62 4.25a.83.83 0 0 0 .9.39.76.76 0 0 0 .47-.26.84.84 0 0 0 .21-.47l.52-5.15 4.71-1.07a.66.66 0 0 0 .47-.26.72.72 0 0 0 .22-.47.77.77 0 0 0 -.13-.51.69.69 0 0 0 -.39-.34l-4.47-2.1.34-4.76a.92.92 0 0 0 -.13-.52 1 1 0 0 0 -.38-.34m-1.59 9.09a.93.93 0 0 0 -.21.51l-.34 3.26-1.69-2.66a1.16 1.16 0 0 0 -.39-.34 1.1 1.1 0 0 0 -.51 0l-3 .55 1.9-2.39a.68.68 0 0 0 .21-.48.65.65 0 0 0 -.13-.47l-1.5-2.61 2.91 1.07a1.05 1.05 0 0 0 .9-.21l2.1-2.23-.21 2.87a1 1 0 0 0 .13.52.92.92 0 0 0 .34.34l2.83 1.29-2.87.64a1.06 1.06 0 0 0 -.43.26m-20.24-46.82a.8.8 0 0 0 -.43-.26.89.89 0 0 0 -.51 0 1.16 1.16 0 0 0 -.43.3 1.06 1.06 0 0 0 -.13.52v7.21l-6.77 2.4a1 1 0 0 0 -.39.3 1 1 0 0 0 -.17.52.8.8 0 0 0 .13.47.7.7 0 0 0 .43.3l6.77 2.57.39 7.16a.75.75 0 0 0 .17.47.94.94 0 0 0 .43.3.74.74 0 0 0 .51 0 .77.77 0 0 0 .43-.34l4.2-5.79 7.11 2.19a.92.92 0 0 0 .52 0 .81.81 0 0 0 .43-.34.78.78 0 0 0 .17-.48.82.82 0 0 0 -.17-.51l-4.2-6 4-6a.81.81 0 0 0 .18-.51.8.8 0 0 0 -.18-.47.73.73 0 0 0 -.43-.3.74.74 0 0 0 -.51 0l-6.94 2.18-4.61-5.9m4 7.67a.74.74 0 0 0 .51 0l5.19-1.62-3 4.5a.85.85 0 0 0 -.13.47.8.8 0 0 0 .13.47l3.13 4.5-5.38-1.62a.89.89 0 0 0 -.51 0 .94.94 0 0 0 -.43.3l-3.06 4.33-.27-5.22a.87.87 0 0 0 -.17-.47.93.93 0 0 0 -.38-.3l-5.18-1.94 5.1-1.8a.77.77 0 0 0 .43-.34.64.64 0 0 0 .17-.47v-5.4l3.39 4.32a.87.87 0 0 0 .46.3z" fill="#e17107"/><path d="m133.81 108.08-.12.17.17.11a.58.58 0 0 0 .43.06.55.55 0 0 0 .39-.21l.11-.16a52.1 52.1 0 0 0 14.48-21l.06-.43a.55.55 0 0 0 -.21-.39l-.16-.11-.11.16a99.19 99.19 0 0 1 -15 21.76m-7-15.61a.53.53 0 0 0 -.75 0l-.08.12-1.57 2.27a.78.78 0 0 0 0 1l5 5.34q.92 1.11 1.47.3l2.36-3.41c.37-.54.18-1.08-.58-1.6l-5.84-4m4.79-8a.51.51 0 0 0 0 .72.45.45 0 0 0 .14.1l5.84 4c.76.53 1.33.52 1.7 0l2.36-3.41c.3-.44 0-.86-.8-1.28l-6.75-2.74a.76.76 0 0 0 -.93.32z" fill="#e17107"/><path d="m131.4 78.58.1.55a1.21 1.21 0 0 1 -.56.81 4.23 4.23 0 0 1 -1.66 1c-.82.32-1.83.74-3 1.26q2 1.35.72 3.13l-1.8 2.6c-.9 1.3-2.12 1.57-3.68.82.38 3.14.28 5.15-.32 6a.8.8 0 0 1 -.5.38q2.2 5.84 9.42 12.75c1.3 1.37 2.5 1.49 3.61.34l.12-.17a99.19 99.19 0 0 0 15-21.76c.43-1.78 0-3-1.37-3.58a47.91 47.91 0 0 0 -6.74-2.71 16.14 16.14 0 0 0 -1.8-.53 32.45 32.45 0 0 0 -7.54-.89m.38 6.74a.51.51 0 0 1 -.25-.68.71.71 0 0 1 .1-.14l1.57-2.27a.76.76 0 0 1 .93-.32l6.75 2.74c.83.42 1.1.84.8 1.28l-2.36 3.41c-.37.54-.94.55-1.7 0l-5.84-4m-5.78 7.28a.53.53 0 0 1 .71-.23.5.5 0 0 1 .12.08l5.84 4c.76.52 1 1.06.58 1.6l-2.36 3.41q-.55.81-1.47-.3l-5-5.34a.78.78 0 0 1 0-1z" fill="#fff"/><path d="m131.5 79.13-.1-.55q-8 .47-10.6 4.92-2.76 4.34-.14 11.66a.8.8 0 0 0 .5-.38c.6-.86.7-2.87.32-6 1.56.75 2.78.48 3.68-.82l1.8-2.6q1.23-1.78-.72-3.13c1.21-.52 2.22-.94 3-1.26a4.23 4.23 0 0 0 1.66-1 1.18 1.18 0 0 0 .6-.84z" fill="#fcab2c"/><path d="m139.06 78.6a29.86 29.86 0 0 0 -7.7-1q-8.58.53-11.36 5.4-3.06 4.65-.27 12.53 2.23 6 9.64 13.14a3.87 3.87 0 0 0 2.39 1.41 2.69 2.69 0 0 0 2-.51l.55-.1a1.58 1.58 0 0 0 1.16-.64q10.53-9.66 14.73-21.34a.51.51 0 0 0 -.11-.55l.07-.43a1.32 1.32 0 0 0 -.15-.83 3.42 3.42 0 0 0 -2.13-3.87 51.43 51.43 0 0 0 -6.88-2.81l.17.11a11.39 11.39 0 0 0 -2.08-.47m-17.45 5.46q2.48-4.06 9.82-4.49a27.89 27.89 0 0 1 7.27.94 7.17 7.17 0 0 1 1.64.41 50.42 50.42 0 0 1 6.63 2.63l.16.11a1.84 1.84 0 0 1 .84 2.3 98.67 98.67 0 0 1 -15 21.52 1.29 1.29 0 0 1 -1 .48 2.14 2.14 0 0 1 -1.14-.79q-7-6.7-9.21-12.36-2.49-6.78 0-10.79z" fill="#e17107"/><path d="m817.82 350.2v-.09a15.54 15.54 0 0 0 -2-6.21 1.28 1.28 0 0 0 -.57-.51l-1.42-.69a12.28 12.28 0 0 0 -.79-2.2 22 22 0 0 0 -3.5-6.13 28.87 28.87 0 0 0 -11.69-8.2 24.47 24.47 0 0 0 -9.65-1.6 1.13 1.13 0 0 0 -.24-.3 5.41 5.41 0 0 0 -1.29-.87c-.24-.23-.71-.24-1.42 0a15.09 15.09 0 0 0 -4.68 1.11c-1 .21-1.65.54-1.87 1a3.75 3.75 0 0 0 -.5.95 5.41 5.41 0 0 0 -1.18.76 25.49 25.49 0 0 0 -10.37 8.3 1.46 1.46 0 0 0 -.8-.11 3.1 3.1 0 0 0 -1.17.63 1.79 1.79 0 0 0 -.3.42 1.21 1.21 0 0 0 -.24.21 15.88 15.88 0 0 0 -3.51 8.59 1.3 1.3 0 0 0 .3 1 1.16 1.16 0 0 0 .73.45 23.82 23.82 0 0 0 .79 13.58 5 5 0 0 1 0 .55 7.09 7.09 0 0 0 -.41 1.43 1.21 1.21 0 0 0 0 .38 10.74 10.74 0 0 0 .88 2.71.69.69 0 0 0 .1.19c.22.38.54 1 .94 1.89a1.33 1.33 0 0 0 .48.57 1.12 1.12 0 0 0 .3.47 3.13 3.13 0 0 0 .94.8 1.09 1.09 0 0 0 .71.1l.29-.09a1.09 1.09 0 0 0 .59-.24h.06a27.81 27.81 0 0 0 24.58 10.18 2.6 2.6 0 0 0 .33.4l.45.46a1.08 1.08 0 0 0 .65.41l.83.17a.73.73 0 0 0 .36 0 14.6 14.6 0 0 0 7-2.11.6.6 0 0 0 .21-.14 4.58 4.58 0 0 0 1.14-1.26l.35-.73a1.22 1.22 0 0 0 .13-.46l.07-1a26.6 26.6 0 0 0 10.71-13.7c0-.11.05-.23.07-.35a10.08 10.08 0 0 1 .49-2.09c.51-.27 1.08-.6 1.72-1a.54.54 0 0 0 .24-.21.58.58 0 0 0 .25-.12 1.16 1.16 0 0 0 .47-.87c.06-.41.11-.84.14-1.26v.09a22.72 22.72 0 0 0 .4-5.14m-7.17-8.77.06.08a12 12 0 0 1 .83 2.4 1.22 1.22 0 0 0 .24.5 1.39 1.39 0 0 0 .44.36l1.55.74a12.9 12.9 0 0 1 1.51 4.84 21.69 21.69 0 0 1 -.37 4.48l-.01.05v.69c-.67.4-1.28.74-1.83 1a1.27 1.27 0 0 0 -.62.69 14.27 14.27 0 0 0 -.79 3 24 24 0 0 1 -10.34 12.62 1.45 1.45 0 0 0 -.4.42 1.23 1.23 0 0 0 -.18.58l-.12 1.42-.24.5a4.54 4.54 0 0 0 -.48.39 12.24 12.24 0 0 1 -5.54 1.69l-.29-.09-.09-.1a3.79 3.79 0 0 1 -.49-.76 1.31 1.31 0 0 0 -.56-.51 1.43 1.43 0 0 0 -.79-.14 23 23 0 0 1 -12.37-1.4 23 23 0 0 1 -11.1-8.34 1.45 1.45 0 0 0 -.4-.34 1.66 1.66 0 0 0 -.48-.19 4.71 4.71 0 0 0 -.92 0 .22.22 0 0 1 -.16 0l-.24.12a3.22 3.22 0 0 1 -.56-.41c-.32-.69-.58-1.23-.79-1.62a10 10 0 0 1 -.67-1.85 2.77 2.77 0 0 1 .24-.79.92.92 0 0 0 .11-.43 7.33 7.33 0 0 0 .1-1.15 1.35 1.35 0 0 0 0-.49 21.39 21.39 0 0 1 -.59-13.3 1.16 1.16 0 0 0 -.38-1.27 4.14 4.14 0 0 0 -.66-.51 13.14 13.14 0 0 1 2.64-6.11 1.64 1.64 0 0 0 .32-.27.11.11 0 0 0 .07-.06 1.55 1.55 0 0 0 .31.06 2.66 2.66 0 0 0 .69 0 1 1 0 0 0 .61-.17.92.92 0 0 0 .44-.41 22.87 22.87 0 0 1 9.91-8.05.9.9 0 0 0 .36-.25 2 2 0 0 1 .76-.49 1.1 1.1 0 0 0 .67-.29 1.09 1.09 0 0 0 .4-.62c.1-.29.17-.5.2-.62a1.1 1.1 0 0 0 .34-.4c0 .14.09.2.25.17h.1a13.11 13.11 0 0 1 4.09-1 .63.63 0 0 0 .29-.1.85.85 0 0 0 .25.17 3.08 3.08 0 0 0 .33.59 1.32 1.32 0 0 0 .5.44 1.37 1.37 0 0 0 .66.13 22 22 0 0 1 9.36 1.4 26.39 26.39 0 0 1 10.61 7.45 18.86 18.86 0 0 1 3.08 5.41m-43.44-5.87v.06m.41 33.07a9.51 9.51 0 0 0 1.48.86l1.09 1.2c-1.56-1.2-2.42-1.89-2.57-2.06m27-37.5a10 10 0 0 0 -9.27-.13c-1.47.87-2.2 1.91-2.19 3.13a3.67 3.67 0 0 0 2.09 3.16 6.38 6.38 0 0 0 .67.38.76.76 0 0 0 .86-.3.67.67 0 0 0 0-.52.58.58 0 0 0 -.31-.34 5.39 5.39 0 0 1 -.52-.3 2.12 2.12 0 0 1 .07-4.06 8.07 8.07 0 0 1 4-.93 8.22 8.22 0 0 1 4 1 2.1 2.1 0 0 1 -.1 4 1.7 1.7 0 0 1 -.45.26.65.65 0 0 0 -.32.37.55.55 0 0 0 0 .47.59.59 0 0 0 .35.36.5.5 0 0 0 .5 0 2.19 2.19 0 0 0 .57-.29c1.46-.85 2.17-1.88 2.13-3.11a3.75 3.75 0 0 0 -2-3.14m5 6.86a2.38 2.38 0 0 1 1.33.31.88.88 0 0 1 .39.57.39.39 0 0 1 -.13.27.57.57 0 0 0 -.11.33.34.34 0 0 0 .15.26.32.32 0 0 0 .33.11.28.28 0 0 0 .27-.15 1.23 1.23 0 0 0 .35-.83 1.53 1.53 0 0 0 -.78-1.33 3.11 3.11 0 0 0 -1.83-.46 3.27 3.27 0 0 0 -1.79.36 1.62 1.62 0 0 0 -.89 1.33 1.46 1.46 0 0 0 .84 1.32l.19.09a.38.38 0 0 0 .33.11.29.29 0 0 0 .26-.16.25.25 0 0 0 .1-.28.41.41 0 0 0 -.14-.31l-.33-.21a.81.81 0 0 1 -.45-.55 1.1 1.1 0 0 1 .5-.62 2.7 2.7 0 0 1 1.4-.23z" fill="#e17107"/><path d="m810.71 341.51-.06-.08a18.86 18.86 0 0 0 -3.08-5.41 26.39 26.39 0 0 0 -10.63-7.45 22 22 0 0 0 -9.36-1.4 1.37 1.37 0 0 1 -.66-.13 1.32 1.32 0 0 1 -.5-.44 3.08 3.08 0 0 1 -.33-.59.85.85 0 0 1 -.25-.17.63.63 0 0 1 -.29.1 13.11 13.11 0 0 0 -4.09 1 .63.63 0 0 1 -.23.08c-.16 0-.24 0-.25-.17a1.1 1.1 0 0 1 -.34.4 3.14 3.14 0 0 1 -.2.62 1.09 1.09 0 0 1 -.4.62 1.1 1.1 0 0 1 -.67.29 2 2 0 0 0 -.76.49.9.9 0 0 1 -.36.25 22.87 22.87 0 0 0 -9.91 8.05.92.92 0 0 1 -.44.41 1 1 0 0 1 -.61.17 2.66 2.66 0 0 1 -.69 0 1.55 1.55 0 0 1 -.31-.06.11.11 0 0 1 -.07.06 1.64 1.64 0 0 1 -.32.27 13.14 13.14 0 0 0 -2.64 6.11 4.14 4.14 0 0 1 .66.51 1.16 1.16 0 0 1 .38 1.27 21.39 21.39 0 0 0 .59 13.3 1.35 1.35 0 0 1 0 .49 7.33 7.33 0 0 1 -.08 1.15.92.92 0 0 1 -.11.43 2.77 2.77 0 0 0 -.24.79 10 10 0 0 0 .67 1.85c.21.39.47.93.79 1.62a3.22 3.22 0 0 0 .56.41l.24-.12a.22.22 0 0 0 .16 0l-.28-.51.32.53a4.71 4.71 0 0 1 .92 0 1.66 1.66 0 0 1 .48.19 1.45 1.45 0 0 1 .4.34 23 23 0 0 0 11.1 8.34 22.94 22.94 0 0 0 12.37 1.4 1.45 1.45 0 0 1 .79.14 1.31 1.31 0 0 1 .56.51 3.79 3.79 0 0 0 .49.76l.09.1.29.09a12.24 12.24 0 0 0 5.54-1.69 4.54 4.54 0 0 1 .48-.39l.24-.5.12-1.42a1.23 1.23 0 0 1 .18-.58 1.45 1.45 0 0 1 .4-.42 24 24 0 0 0 10.15-12.65 14.27 14.27 0 0 1 .79-3 1.27 1.27 0 0 1 .62-.69c.53-.28 1.14-.61 1.83-1v-.69l.06-.12a21.69 21.69 0 0 0 .37-4.48 12.9 12.9 0 0 0 -1.51-4.84l-1.55-.74a1.39 1.39 0 0 1 -.44-.36 1.22 1.22 0 0 1 -.24-.5 12 12 0 0 0 -.83-2.4m-11.06-3.52a2.82 2.82 0 0 0 -1.31.26 1.1 1.1 0 0 0 -.5.62.81.81 0 0 0 .45.55l.33.21a.41.41 0 0 1 .14.31.25.25 0 0 1 -.1.28.29.29 0 0 1 -.26.16.38.38 0 0 1 -.33-.11l-.19-.09a1.46 1.46 0 0 1 -.79-1.32 1.62 1.62 0 0 1 .89-1.33 3.27 3.27 0 0 1 1.79-.36 3.11 3.11 0 0 1 1.83.46 1.53 1.53 0 0 1 .78 1.33 1.23 1.23 0 0 1 -.35.83.28.28 0 0 1 -.27.15.32.32 0 0 1 -.33-.11.34.34 0 0 1 -.15-.26.57.57 0 0 1 .11-.33.38.38 0 0 0 .17-.44.88.88 0 0 0 -.39-.57 2.38 2.38 0 0 0 -1.33-.31m-5-6.86c1.42.88 2.1 1.92 2 3.14a3.78 3.78 0 0 1 -2.13 3.11 2.19 2.19 0 0 1 -.57.29.5.5 0 0 1 -.5 0 .59.59 0 0 1 -.35-.36.55.55 0 0 1 0-.47.65.65 0 0 1 .32-.37 1.7 1.7 0 0 0 .45-.26 2.53 2.53 0 0 0 1.51-2 2.5 2.5 0 0 0 -1.41-2 8.22 8.22 0 0 0 -4-1 8.07 8.07 0 0 0 -4 .93 2.12 2.12 0 0 0 -.07 4.06 5.39 5.39 0 0 0 .52.3.58.58 0 0 1 .31.34.67.67 0 0 1 0 .52.76.76 0 0 1 -.86.3 6.38 6.38 0 0 1 -.67-.38 3.67 3.67 0 0 1 -2.09-3.16c0-1.22.72-2.26 2.19-3.13a10 10 0 0 1 9.27.13z" fill="#fff"/><path d="m204.53 145.06q11.29-10.81 8.83-14.27-2.18-3.85-16.67 2.23a179.25 179.25 0 0 0 -27.31 14.4c-.13-1-.25-2-.34-3a15.55 15.55 0 0 1 2.61-10.51.72.72 0 0 0 .17-.51.73.73 0 0 0 -.17-.47.82.82 0 0 0 -.47-.3.75.75 0 0 0 -.51 0 18.63 18.63 0 0 0 -7.89 5.61 19.3 19.3 0 0 0 -4.78 14.62.14.14 0 0 1 0 .09 11.47 11.47 0 0 1 .22 1.75 233.87 233.87 0 0 0 -20.71 16.42q-11 10.88-8.51 14.28 2.16 3.82 16.84-2.06a174.37 174.37 0 0 0 25.25-13.24 20.55 20.55 0 0 0 8.83 1.11 19 19 0 0 0 13.63-7 15.41 15.41 0 0 0 3.34-5.19.65.65 0 0 0 .05-.51.82.82 0 0 0 -.3-.47.73.73 0 0 0 -.47-.17.88.88 0 0 0 -.52.13 14.87 14.87 0 0 1 -7.67 2.44h-.09a14.45 14.45 0 0 1 -2.18.17 141.94 141.94 0 0 0 18.9-15.52m7.39-13.37q1.46 2.49-8.57 12.09a146.79 146.79 0 0 1 -20.58 16.63l-7.09 4.56c-1.8 1.15-3.47 2.23-5 3.26l-.21.13a173.15 173.15 0 0 1 -25.25 13.29q-13 5.21-14.75 2.74-1.55-2.4 8.18-12a229.56 229.56 0 0 1 19.89-15.82q.3 1 .6 1.8c-.29.2-.64.41-1 .64h-.08c-2.09 1.75-4.07 3.48-6 5.19q-6 5.38-4.41 7.07 1.28 2 8.91-1.71c2.34-1.18 4.91-2.6 7.72-4.24a.94.94 0 0 0 .43-.13c2.25-1.35 4.63-2.88 7.16-4.59l3.43-2.31a2.12 2.12 0 0 0 .73-.52 83.07 83.07 0 0 0 9.9-7.93 29.79 29.79 0 0 0 3.86-4c1.06-1.44 1.26-2.46.6-3q-1.29-2-9 1.76-4.84 2.41-10.93 6.17a15.3 15.3 0 0 0 -.82-1.55 179.92 179.92 0 0 1 27.44-14.53q12.78-5.37 14.53-2.91m-22.59 12.19a6.18 6.18 0 0 0 -.68.85 29.3 29.3 0 0 1 -3.65 3.82 80.14 80.14 0 0 1 -9.81 7.8 16.79 16.79 0 0 1 -3.48-3.9c0-.08-.08-.17-.12-.26q6-3.76 10.84-6.17 6.08-3 6.77-2.27zm-5.91 18.21a14.63 14.63 0 0 0 4.67 0 16.77 16.77 0 0 0 6-1.37 13.61 13.61 0 0 1 -1.8 2.27 17.33 17.33 0 0 1 -12.43 6.43 20.06 20.06 0 0 1 -6.9-.6l3.69-2.36q3.6-2.31 6.82-4.42m-16.08-17.57c.15 1.43.35 2.86.6 4.28a.86.86 0 0 0 .09.39v.09a26 26 0 0 1 1.46 3 1.2 1.2 0 0 0 .17.21 1.83 1.83 0 0 1 .43.69l.09.13a17.9 17.9 0 0 0 3.47 4l-2.66 1.76q-3.51 2.37-6.64 4.28a13.63 13.63 0 0 1 -2.74-3.86 7 7 0 0 0 -.69-1.37 32.3 32.3 0 0 1 -1-3.17 12.48 12.48 0 0 0 -.26-2.44l.05.08a17.56 17.56 0 0 1 4.33-13.37 17.89 17.89 0 0 1 4.71-4 17.61 17.61 0 0 0 -1.5 9.22m-14 20.92q2.75-2.49 5.78-5a8.73 8.73 0 0 0 .82-.52l.13.26v.09a15.56 15.56 0 0 0 2.7 4c-2.48 1.46-4.76 2.72-6.86 3.78q-6.07 3-6.81 2.22h-.05c-.22-.42 1.19-2 4.25-4.71m74.28-52.77a.81.81 0 0 0 -.42-.26 1.14 1.14 0 0 0 -.52 0 1.06 1.06 0 0 0 -.38.35.9.9 0 0 0 -.13.51l.34 4.93-4.59 1.89a1.12 1.12 0 0 0 -.38.34.9.9 0 0 0 -.13.51.78.78 0 0 0 .17.48.87.87 0 0 0 .47.3l4.76 1.17.56 4.89a.84.84 0 0 0 .21.47.7.7 0 0 0 .43.26.9.9 0 0 0 .9-.35l2.66-4 4.76.85a.65.65 0 0 0 .51 0 .72.72 0 0 0 .39-.34.85.85 0 0 0 .13-.47.83.83 0 0 0 -.18-.48l-3-3.94 2.45-4a.83.83 0 0 0 .13-.51.85.85 0 0 0 -.22-.48.78.78 0 0 0 -.43-.25.74.74 0 0 0 -.51 0l-4.29 1.61-3.35-3.56m4.68 7.33a.9.9 0 0 0 .17.47l2 2.62-3.09-.61a1.46 1.46 0 0 0 -.51 0 1.41 1.41 0 0 0 -.39.34l-1.63 2.49-.34-3.09a.84.84 0 0 0 -.21-.47.94.94 0 0 0 -.43-.3l-2.92-.77 2.79-1.16a.73.73 0 0 0 .43-.34.8.8 0 0 0 .13-.52l-.22-3.13 2.06 2.19a.8.8 0 0 0 .43.26.76.76 0 0 0 .47 0l2.92-1-1.5 2.48a.88.88 0 0 0 -.13.52m-28.89-16.38a.8.8 0 0 0 -.48-.12h-5l-1.52-4.51a.87.87 0 0 0 -.3-.38 1 1 0 0 0 -.51-.18.85.85 0 0 0 -.47.13 1.13 1.13 0 0 0 -.35.43l-1.76 4.55-4.8.21a.9.9 0 0 0 -.47.17.94.94 0 0 0 -.3.43.85.85 0 0 0 .3.94l3.9 3-1.28 4.84a1.14 1.14 0 0 0 0 .52.84.84 0 0 0 .34.38.74.74 0 0 0 .47.18 1 1 0 0 0 .52-.18l4.07-3 4 2.62a.79.79 0 0 0 .47.17.87.87 0 0 0 .52-.17.94.94 0 0 0 .3-.43 1.06 1.06 0 0 0 0-.56l-1.59-4.5 3.86-3a.94.94 0 0 0 .3-.43.89.89 0 0 0 0-.56 1 1 0 0 0 -.34-.43m-9.69 1.59a.74.74 0 0 0 .43-.17.73.73 0 0 0 .3-.39l1.15-2.91 1 2.87a.81.81 0 0 0 .3.43.87.87 0 0 0 .51.17h3.05l-2.4 1.84a.87.87 0 0 0 -.3.43.77.77 0 0 0 0 .52l.94 2.74-2.44-1.59a1 1 0 0 0 -.51-.12.78.78 0 0 0 -.48.17l-2.57 1.88.77-3a.75.75 0 0 0 0-.51 1 1 0 0 0 -.3-.39l-2.48-1.88 3-.13m21.9-24.39a.85.85 0 0 0 -.6-.77.75.75 0 0 0 -.51 0 .77.77 0 0 0 -.43.3l-4.27 5.56-6.9-2.19a.77.77 0 0 0 -.52 0 .94.94 0 0 0 -.43.3.9.9 0 0 0 -.17.47 1.06 1.06 0 0 0 .13.52l4 6.17-4.24 5.87a1.06 1.06 0 0 0 -.13.52.78.78 0 0 0 .13.47 1 1 0 0 0 .42.34.77.77 0 0 0 .52 0l6.94-2 4.42 5.87a.85.85 0 0 0 .94.3 1 1 0 0 0 .6-.77l.34-7.38 6.73-2.35a.82.82 0 0 0 .43-.35.79.79 0 0 0 0-1 .8.8 0 0 0 -.38-.3l-6.75-2.49-.17-7.16m-1.37 8.23a.87.87 0 0 0 .43.3l5.1 1.93-5.1 1.8a1 1 0 0 0 -.39.3.9.9 0 0 0 -.17.47l-.3 5.53-3.3-4.4a.87.87 0 0 0 -.43-.3.89.89 0 0 0 -.51 0l-5.1 1.51 3.08-4.38a.64.64 0 0 0 .17-.47.68.68 0 0 0 -.17-.47l-3-4.72 5.27 1.68a.92.92 0 0 0 .52 0 .94.94 0 0 0 .43-.3l3.21-4.2.17 5.27a.85.85 0 0 0 .13.47m-30.18-7.5a.92.92 0 0 0 .52 0 .87.87 0 0 0 .43-.35.73.73 0 0 0 .17-.47.87.87 0 0 0 -.17-.51l-2.4-3.43 2.27-3.47a1.06 1.06 0 0 0 .13-.52.88.88 0 0 0 -.6-.77.92.92 0 0 0 -.52 0l-4 1.2-2.64-3.27a.8.8 0 0 0 -.43-.26.89.89 0 0 0 -.51 0 1.28 1.28 0 0 0 -.43.3 1.06 1.06 0 0 0 -.13.52v4.07l-4 1.42a1.08 1.08 0 0 0 -.43.3 1 1 0 0 0 -.12.51.77.77 0 0 0 .12.47 1 1 0 0 0 .43.34l4 1.38.17 4.33a.85.85 0 0 0 .6.81.77.77 0 0 0 .52 0 .71.71 0 0 0 .42-.34l2.48-3.47 4.11 1.2m-6.56-6.35v-2.23l1.45 1.8a.87.87 0 0 0 .43.3.89.89 0 0 0 .51 0l2.27-.68-1.28 2a.91.91 0 0 0 0 .94l1.37 2-2.4-.68a.77.77 0 0 0 -.52 0 1 1 0 0 0 -.42.3l-1.29 1.88-.09-2.4a.85.85 0 0 0 -.6-.77l-2.18-.77 2.18-.77a.73.73 0 0 0 .43-.34.65.65 0 0 0 .14-.58z" fill="#e17107"/><path d="m717.69 96.56a1.27 1.27 0 0 0 .17.35 20.81 20.81 0 0 1 2.06 9 12.26 12.26 0 0 1 -2.32 6.94 10.8 10.8 0 0 1 -1.89 2.1 8.9 8.9 0 0 0 .56-4.37 11.61 11.61 0 0 0 -3.94-8.19 19 19 0 0 0 -6-4 .11.11 0 0 1 -.08 0c-.4-.14-.86-.28-1.37-.42a18.46 18.46 0 0 0 -5.57-.86h-.09a19.4 19.4 0 0 0 -15 9 26 26 0 0 0 -4.07 15.43 22.12 22.12 0 0 0 1.5 8.41 12.68 12.68 0 0 0 .56 1.37 20.44 20.44 0 0 0 4.5 7.16 1 1 0 0 0 .51.3.78.78 0 0 0 .56-.13.87.87 0 0 0 .38-1q-.78-2.16-1.8-4.59a22.11 22.11 0 0 1 -2.27-7.54q-.57-10.08 4.16-16.38a13.35 13.35 0 0 1 10.62-5.84 12.08 12.08 0 0 1 5.87.69h.09a12.11 12.11 0 0 1 1.59.6 11.67 11.67 0 0 0 -4.21.77 10.59 10.59 0 0 0 -5.1 4.12 14.55 14.55 0 0 0 -1.89 11.19 18.68 18.68 0 0 0 4.68 8.63q7.25 6.57 17.7 5a26.57 26.57 0 0 0 12-5.7q7.77-6.09 9.64-14.32a.65.65 0 0 0 0-.51.81.81 0 0 0 -.3-.39 1.06 1.06 0 0 0 -.47-.13 1.33 1.33 0 0 0 -.51.13 11.3 11.3 0 0 0 -2.06 2.7.14.14 0 0 1 0 .09 13.73 13.73 0 0 1 -1.88 2.78 0 0 0 0 1 0 0 19.41 19.41 0 0 1 -6.26 5.87 32.69 32.69 0 0 1 -6.9 3.69 19.32 19.32 0 0 1 -6.17 1.11h-.56a14.13 14.13 0 0 1 -8-2.79 12.54 12.54 0 0 1 -5-7.07q3.09 3.34 9.6 3 6.3-.21 11.4-5.83 4-4.11 3.35-11.83a10 10 0 0 0 -.26-2.1 23.58 23.58 0 0 0 -7.93-14.92q-7.76-7.08-19.79-6.49a24.52 24.52 0 0 0 -3.3.38.14.14 0 0 1 -.09 0 1.07 1.07 0 0 0 -.56.35.87.87 0 0 0 .73 1.37 32.68 32.68 0 0 1 8.66.68 22 22 0 0 1 6.82 2.92 18.61 18.61 0 0 1 6.38 6.34 17.93 17.93 0 0 1 1.68 2.82m1.71-.38-.08-.09v-.17a19 19 0 0 0 -1.84-3.17 20.13 20.13 0 0 0 -6.9-6.86c-.4-.26-.8-.5-1.2-.73a23.18 23.18 0 0 1 6.86 4.29 21.85 21.85 0 0 1 7.19 13.93.14.14 0 0 1 0 .09 8.72 8.72 0 0 1 .21 1.76q.57 6.93-2.87 10.63-4.6 5.06-10.24 5.27-8.43.51-10.21-6.25a.77.77 0 0 0 -.34-.52 1 1 0 0 0 -.6-.13.93.93 0 0 0 -.51.26.94.94 0 0 0 -.22.6q0 8.88 6.3 13.29a15.73 15.73 0 0 0 8.92 3.08h.6a20.83 20.83 0 0 0 6.73-1.2 33.84 33.84 0 0 0 7.33-3.88 21 21 0 0 0 5.34-4.37 27.42 27.42 0 0 1 -5.36 5.4 25 25 0 0 1 -11.19 5.36q-9.57 1.43-16.24-4.55a17.1 17.1 0 0 1 -4.21-7.84 12.92 12.92 0 0 1 1.67-9.9 9.15 9.15 0 0 1 4.33-3.43 10.3 10.3 0 0 1 6.69-.17.66.66 0 0 0 .55 0 .67.67 0 0 0 .43-.34.78.78 0 0 0 .13-.56.82.82 0 0 0 -.26-.47 12.09 12.09 0 0 0 -5-3 13.35 13.35 0 0 0 -6.65-.81 14.89 14.89 0 0 0 -11.89 6.59q-5.07 6.75-4.46 17.49c0 .55.09 1.1.17 1.63a22.09 22.09 0 0 1 -.64-5.62 24.24 24.24 0 0 1 3.81-14.44 17.72 17.72 0 0 1 13.71-8.24 17.22 17.22 0 0 1 5 .77l1.25.39a17.43 17.43 0 0 1 5.4 3.56h.08a10 10 0 0 1 3.35 7 7.43 7.43 0 0 1 -2.19 6.22 1 1 0 0 0 -.21.51.9.9 0 0 0 .13.56.82.82 0 0 0 .42.34.77.77 0 0 0 .56 0 11.89 11.89 0 0 0 5.75-4.5 14 14 0 0 0 2.61-7.89 22.36 22.36 0 0 0 -2.23-9.77m-58-3.39a.92.92 0 0 0 .13.52l2.82 4.41-3 4.07a.93.93 0 0 0 -.17.48.9.9 0 0 0 .12.51.89.89 0 0 0 .43.34.67.67 0 0 0 .52 0l5-1.41 3.21 4.29a1.05 1.05 0 0 0 .43.3.92.92 0 0 0 .52 0 .94.94 0 0 0 .43-.3.87.87 0 0 0 .17-.52l.13-5.14 4.84-1.76a.69.69 0 0 0 .39-.34.71.71 0 0 0 .17-.47.92.92 0 0 0 -.17-.52.84.84 0 0 0 -.39-.3l-4.84-1.76-.13-5.2a.9.9 0 0 0 -.17-.47.84.84 0 0 0 -.43-.3.77.77 0 0 0 -.52 0 .94.94 0 0 0 -.43.3l-3.17 4-4.8-1.53a.85.85 0 0 0 -1.11.77m4.88 5a.7.7 0 0 0 -.13-.48l-1.88-2.91 3.08 1a.92.92 0 0 0 .52 0 .94.94 0 0 0 .43-.3l2.06-2.66.12 3.34a.78.78 0 0 0 .18.47.76.76 0 0 0 .38.35l3.13 1.16-3.13 1.15a1 1 0 0 0 -.38.3 1 1 0 0 0 -.18.47l-.12 3.3-2.06-2.78a.94.94 0 0 0 -.43-.3.92.92 0 0 0 -.52 0l-3.08.9 1.8-2.52a.82.82 0 0 0 .17-.51m95.77 12a1 1 0 0 0 -.15.51l.34 5.31-4.59 1.93a1.27 1.27 0 0 0 -.38.35 1 1 0 0 0 -.13.51.84.84 0 0 0 .17.47 1 1 0 0 0 .43.3l5 1.42.73 5.23a1 1 0 0 0 .22.47.73.73 0 0 0 .47.21.57.57 0 0 0 .51 0 .65.65 0 0 0 .39-.34l2.66-4.46 5.1.86a.83.83 0 0 0 .9-.39.72.72 0 0 0 .13-.51.92.92 0 0 0 -.22-.48l-3.31-3.88 2.44-4.42a.7.7 0 0 0 .14-.58.92.92 0 0 0 -.21-.52 1.12 1.12 0 0 0 -.47-.25 1.14 1.14 0 0 0 -.52 0l-4.76 2-3.51-3.94a1.14 1.14 0 0 0 -.47-.26 1.51 1.51 0 0 0 -.52 0 1.12 1.12 0 0 0 -.38.34m4.45 5.66a.59.59 0 0 0 .52 0l3-1.24-1.54 2.78a1.19 1.19 0 0 0 -.09.52.89.89 0 0 0 .22.47l2.18 2.53-3.38-.6a1 1 0 0 0 -.86.38l-1.61 2.93-.48-3.3a.89.89 0 0 0 -.64-.69l-3.21-.94 3-1.25a.65.65 0 0 0 .39-.34.77.77 0 0 0 .13-.51l-.22-3.43 2.28 2.53a.67.67 0 0 0 .35.25z" fill="#e17107"/><path d="m101.09 357.85a1 1 0 0 0 -.42.3l-3.18 3.69-4.58-1.76a.92.92 0 0 0 -.52 0 .94.94 0 0 0 -.43.3.81.81 0 0 0 -.21.47.77.77 0 0 0 .09.47l2.31 4.24-2.83 3.73a.9.9 0 0 0 -.17.47.66.66 0 0 0 .13.47.8.8 0 0 0 .9.39l4.54-.86 2.66 4.08a.73.73 0 0 0 .39.3.75.75 0 0 0 .51 0 .79.79 0 0 0 .47-.26.89.89 0 0 0 .22-.47l.51-4.93 4.76-1.29a.61.61 0 0 0 .43-.3.64.64 0 0 0 .21-.47.9.9 0 0 0 -.13-.51 1 1 0 0 0 -.43-.34l-4.54-1.89.39-4.93a.9.9 0 0 0 -.13-.51 1 1 0 0 0 -.43-.35 1.14 1.14 0 0 0 -.52 0m-.85 3.39-.22 2.91a.8.8 0 0 0 .13.52.72.72 0 0 0 .39.34l2.78 1.16-2.87.77a.87.87 0 0 0 -.38.3.82.82 0 0 0 -.22.47l-.34 3.09-1.63-2.49a.86.86 0 0 0 -.39-.34 1.1 1.1 0 0 0 -.49-.01l-3 .56 1.84-2.36a.8.8 0 0 0 .18-.47.85.85 0 0 0 -.13-.47l-1.46-2.66 3 1.12a.75.75 0 0 0 .51 0 .67.67 0 0 0 .43-.26l1.85-2.18m32.17-17.28a1.13 1.13 0 0 0 -.35.43l-1.75 4.57h-4.93a1 1 0 0 0 -.52.12 1.08 1.08 0 0 0 -.3.43 1.06 1.06 0 0 0 0 .56.87.87 0 0 0 .3.43l3.9 3-1.41 4.58a.77.77 0 0 0 0 .52.87.87 0 0 0 .3.43.9.9 0 0 0 .47.17.78.78 0 0 0 .47-.13l4.07-2.49 3.86 2.83a.79.79 0 0 0 .47.17.76.76 0 0 0 .52-.17.6.6 0 0 0 .3-.38.67.67 0 0 0 0-.52l-1.2-4.8 3.86-3a.77.77 0 0 0 .3-.43.85.85 0 0 0 -.3-.94.87.87 0 0 0 -.52-.17l-4.71-.17-1.59-4.59a.88.88 0 0 0 -1.28-.43m1.45 6.13a.87.87 0 0 0 .3.43.93.93 0 0 0 .48.17l2.91.09-2.44 1.88a.93.93 0 0 0 -.26.39 1.1 1.1 0 0 0 0 .51l.77 3-2.36-1.71a.9.9 0 0 0 -.47-.17.88.88 0 0 0 -.52.13l-2.61 1.58.94-3a.74.74 0 0 0 0-.51.87.87 0 0 0 -.3-.43l-2.35-1.8h3a.73.73 0 0 0 .47-.17.68.68 0 0 0 .3-.39l1.16-2.95 1 2.91m-7.82-20.64a.89.89 0 0 0 -.51 0l-6.78 2.19-4.58-5.87a.92.92 0 0 0 -.94-.26.94.94 0 0 0 -.43.3.9.9 0 0 0 -.13.51v7.25l-7 2.4a1 1 0 0 0 -.42.3.9.9 0 0 0 -.13.51.73.73 0 0 0 .17.47.86.86 0 0 0 .38.35l7 2.31.21 7.33a.87.87 0 0 0 .17.52.94.94 0 0 0 .43.3.92.92 0 0 0 .52 0 .94.94 0 0 0 .43-.3l4.37-5.88 6.9 2a.89.89 0 0 0 .51 0 .81.81 0 0 0 .43-.34.65.65 0 0 0 .17-.48.73.73 0 0 0 -.17-.51l-4.2-5.83 4-6a.76.76 0 0 0 .17-.52.79.79 0 0 0 -.17-.47.87.87 0 0 0 -.43-.3m-7.84 4a.89.89 0 0 0 .51 0l5-1.63-3 4.5a1 1 0 0 0 -.12.47.77.77 0 0 0 .12.47l3.13 4.33-5.14-1.5a.92.92 0 0 0 -.52 0 .87.87 0 0 0 -.38.3l-3.26 4.33-.13-5.44a.73.73 0 0 0 -.17-.47.7.7 0 0 0 -.43-.3l-5.1-1.72 5.1-1.76a.7.7 0 0 0 .43-.34.64.64 0 0 0 .17-.47v-5.4l3.39 4.33a.89.89 0 0 0 .47.31z" fill="#e17107"/><path d="m823.68 247a.69.69 0 0 0 -.17-.3.59.59 0 0 0 -.29-.13.54.54 0 0 0 -.33 0 .72.72 0 0 0 -.23.23l-1.4 2.58-3.09-.38a.81.81 0 0 0 -.31.06.64.64 0 0 0 -.31.53.69.69 0 0 0 .12.29l2 2.25-1.29 2.7a.48.48 0 0 0 -.08.31.51.51 0 0 0 .15.3.5.5 0 0 0 .61.09l2.82-1.24 2.24 2.15a.57.57 0 0 0 .3.15.44.44 0 0 0 .32-.06.61.61 0 0 0 .25-.23.68.68 0 0 0 .08-.31l-.45-3 2.78-1.38a.42.42 0 0 0 .26-.23.55.55 0 0 0 -.28-.74h-.09l-3.08-.61-.55-3m-2.95 4.71-1.27-1.43 2 .26a.54.54 0 0 0 .31-.06.59.59 0 0 0 .25-.22l.85-1.56.34 1.83a.54.54 0 0 0 .15.3.52.52 0 0 0 .27.15l1.84.33-1.68.84a.63.63 0 0 0 -.23.23.45.45 0 0 0 -.09.31l.24 1.95-1.39-1.41a.59.59 0 0 0 -.29-.07.48.48 0 0 0 -.31 0l-1.7.81.8-1.68a.48.48 0 0 0 .08-.31.49.49 0 0 0 -.14-.3m15.85-7.42a.55.55 0 0 0 -.25-.2.48.48 0 0 0 -.34-.09.71.71 0 0 0 -.3.15.65.65 0 0 0 -.08.31l-.7 4.52-4.46.87a.72.72 0 0 0 -.27.15.57.57 0 0 0 -.15.31.52.52 0 0 0 0 .3.49.49 0 0 0 .24.23l4 2.25-.45 4.49a.59.59 0 0 0 .06.32.57.57 0 0 0 .24.22.51.51 0 0 0 .32.08.47.47 0 0 0 .3-.18l3.16-3.19 4.23 2a.49.49 0 0 0 .31.09.54.54 0 0 0 .3-.17.48.48 0 0 0 .15-.28.66.66 0 0 0 -.06-.34l-2-4.15 3-3.32a.53.53 0 0 0 .17-.31.63.63 0 0 0 -.07-.3.49.49 0 0 0 -.24-.23.56.56 0 0 0 -.31-.09l-4.53.7-2.3-4.1m1.73 5.16a.46.46 0 0 0 .3.08l3.39-.51-2.29 2.49a.6.6 0 0 0 -.13.28.56.56 0 0 0 0 .31l1.52 3.1-3.08-1.49a.5.5 0 0 0 -.31-.08.57.57 0 0 0 -.3.15l-2.39 2.39.35-3.3a.87.87 0 0 0 -.06-.32.88.88 0 0 0 -.21-.22l-3-1.67 3.34-.63a.51.51 0 0 0 .3-.17.45.45 0 0 0 .16-.28l.51-3.37 1.69 3a.58.58 0 0 0 .26.13z" fill="#e17107"/><path d="m883.42 240c-4.55 1.91-8.77 2.2-12.65.84l-.17.63v.16q6 2.12 13.18-.88l.77-.34a.45.45 0 0 0 .23-.22.4.4 0 0 0 0-.32.36.36 0 0 0 -.22-.2.4.4 0 0 0 -.32 0z" fill="#fff"/><path d="m883.17 239.41q-6.6 2.76-12.18.87a.14.14 0 0 0 -.15 0 .2.2 0 0 0 -.1.12.14.14 0 0 0 0 .15.2.2 0 0 0 .12.1l-.06.2q5.81 2 12.65-.84l.76-.33a.36.36 0 0 1 .32 0 .39.39 0 0 1 .21.21.37.37 0 0 1 0 .31.51.51 0 0 1 -.23.23l-.77.33q-7.15 3-13.18.89a.2.2 0 0 0 -.17 0 .17.17 0 0 0 -.09.14v.14a.18.18 0 0 0 0 .14.34.34 0 0 0 .12.09q6.27 2.19 13.66-.91l.76-.33a1 1 0 0 0 .56-.54 1.13 1.13 0 0 0 0-.81 1 1 0 0 0 -.54-.53 1.06 1.06 0 0 0 -.82 0z" fill="#e17107"/><path d="m877.17 205.85-9.78.27a14.4 14.4 0 0 0 -10.53 5.13 15.84 15.84 0 0 0 -4.06 11.67l.44 19.44-8.74 7.92a3.31 3.31 0 0 0 -.62.56v-.05a2.57 2.57 0 0 0 -.73 2.14q.12 2.53 8.05 5.55a34.59 34.59 0 0 0 5.64 1.62 82.55 82.55 0 0 0 18.83 1.32 77.41 77.41 0 0 0 18.87-2.28q8.45-2.31 8.78-5.39a2.37 2.37 0 0 0 -.74-2 2.21 2.21 0 0 0 -.57-.61 3.17 3.17 0 0 0 .61-2 4.8 4.8 0 0 0 -.73-2.27 2 2 0 0 0 -1.86-.8 5.9 5.9 0 0 0 -2.61 0h-.06l-.55.18-3.61-3.58-.05-1.38a.14.14 0 0 0 0-.06l-.45-19.2a16.83 16.83 0 0 0 -4.7-11.54 14.17 14.17 0 0 0 -10.86-4.55m0 1.23a13.06 13.06 0 0 1 9.94 4.18 15.73 15.73 0 0 1 4.43 10.65l.43 18.19c-1.37-.37-3 .38-4.76 2.31l-2.18-1.65a.58.58 0 0 0 -.46-.12.64.64 0 0 0 -.52.68.67.67 0 0 0 .24.42l2.11 1.6a1.84 1.84 0 0 1 -.17.22c-.59.75-1.15 1.53-1.66 2.33a35.57 35.57 0 0 1 -6.35.52l-9.7.27a36.15 36.15 0 0 1 -10.1-.93c-2.47-.62-3.79-1.31-3.86-2.08v-1l-.53-19.76a14.7 14.7 0 0 1 3.74-10.79 13.22 13.22 0 0 1 9.66-4.72l9.78-.28m19 40.12h.1l1.5 1.27 2.92 3h.07l.25.25a.91.91 0 0 0 .16.11.83.83 0 0 1 .31.36l.11.13a1.29 1.29 0 0 1 .45 1q-.51 2.35-7.88 4.38a76 76 0 0 1 -18.57 2.26 80.53 80.53 0 0 1 -18.53-1.28 35.72 35.72 0 0 1 -5.46-1.54c-4.62-1.76-7.05-3.27-7.26-4.52a1.47 1.47 0 0 1 .39-1.18.14.14 0 0 0 0-.06 1.61 1.61 0 0 1 .37-.32.27.27 0 0 0 .08-.07l8-7.17c.12 1.23 1.71 2.23 4.76 3a37 37 0 0 0 10.43 1l9.69-.28a36.66 36.66 0 0 0 6.86-.57 25.59 25.59 0 0 0 3.46-.82q3.38-1 4.29-2.31l3.33 3.31m3.73-.1a.2.2 0 0 0 .11 0 .9.9 0 0 1 .82.29 3.47 3.47 0 0 1 .59 1.67 2.23 2.23 0 0 1 -.31 1.15l-2.22-2.24a3.59 3.59 0 0 1 .12-.47 1.34 1.34 0 0 1 .86-.39m-10.79 2.67a7.62 7.62 0 0 0 -2.92 1.23 2 2 0 0 0 -1 .89 1.07 1.07 0 0 0 -.32.41.59.59 0 0 0 -.05.45.55.55 0 0 0 0 .31.57.57 0 0 0 0 .26.82.82 0 0 0 .1.26.83.83 0 0 1 .16.21.53.53 0 0 0 .11.21 3.2 3.2 0 0 0 1.11.85 9.17 9.17 0 0 0 3 1.16 4.68 4.68 0 0 0 2.35 0h.16a2.43 2.43 0 0 0 1.87-1.1 3.37 3.37 0 0 0 .62-2.13 2.87 2.87 0 0 0 -.74-2.19 2.53 2.53 0 0 0 -1.71-.93 3.87 3.87 0 0 0 -2.76.12m1.38 3.07a.32.32 0 0 0 0-.09 1.78 1.78 0 0 1 .36-1.36 1 1 0 0 1 .81-.47h.07a1.42 1.42 0 0 1 .9.51 1.78 1.78 0 0 1 .58 1.47v.06a2.2 2.2 0 0 1 -.37 1.37 1.24 1.24 0 0 1 -.73.54.59.59 0 0 0 -.37 0 .89.89 0 0 1 -.63-.38 2.07 2.07 0 0 1 -.36-1.77z" fill="#e17107"/><path d="m896.26 247.23-3.34-3.31q-.92 1.29-4.28 2.31a25.59 25.59 0 0 1 -3.46.82 36.67 36.67 0 0 1 -6.86.58l-9.69.27a36.69 36.69 0 0 1 -10.44-1c-3-.76-4.63-1.75-4.75-3l-8 7.18a.27.27 0 0 1 -.08.07 1.91 1.91 0 0 0 -.38.31.08.08 0 0 1 0 .07 1.44 1.44 0 0 0 -.39 1.18c.21 1.25 2.63 2.78 7.26 4.52a35.72 35.72 0 0 0 5.46 1.54 81 81 0 0 0 18.45 1.37 76.42 76.42 0 0 0 18.56-2.26q7.4-2 7.88-4.38a1.29 1.29 0 0 0 -.45-1l-.11-.14a.84.84 0 0 0 -.3-.35.52.52 0 0 1 -.17-.12l-.25-.24h-.07l-2.92-3-1.5-1.27h-.09m-10 3.78a7.64 7.64 0 0 1 2.92-1.24 3.87 3.87 0 0 1 2.76-.11 2.52 2.52 0 0 1 1.71.92 2.9 2.9 0 0 1 .74 2.19 3.37 3.37 0 0 1 -.62 2.13 2.42 2.42 0 0 1 -1.87 1.1h-.16a4.68 4.68 0 0 1 -2.35 0 9.19 9.19 0 0 1 -3-1.17 3.3 3.3 0 0 1 -1.11-.84.71.71 0 0 1 -.11-.21.69.69 0 0 0 -.16-.22.77.77 0 0 1 -.1-.25.57.57 0 0 1 0-.26.69.69 0 0 1 0-.32.59.59 0 0 1 0-.45 1 1 0 0 1 .32-.4 2 2 0 0 1 .95-.92z" fill="#fcab2c"/><path d="m886.54 238h-.09a1.79 1.79 0 0 0 -.72-.19 1.15 1.15 0 0 0 -.9.46l-3.35 4.34a1 1 0 0 0 -.22.82.86.86 0 0 0 .4.78 1.25 1.25 0 0 0 1 .26h.09a1.09 1.09 0 0 0 .57-.49l3.33-4.28a.85.85 0 0 0 .33-.75 1.11 1.11 0 0 0 -.41-.9m-.78.59.26.07a.32.32 0 0 1 .11.27.17.17 0 0 1 0 .13l-.1.08-3.35 4.34a.5.5 0 0 1 -.15.17.44.44 0 0 1 -.3-.08h-.08a.4.4 0 0 1 0-.15.36.36 0 0 0 0-.1.22.22 0 0 1 0-.16l3.36-4.34a.4.4 0 0 1 .25-.26z" fill="#e17107"/><path d="m886 238.65-.26-.07a.42.42 0 0 0 -.28.14l-3.36 4.33a.26.26 0 0 0 0 .17.44.44 0 0 1 0 .1.4.4 0 0 0 0 .15h.08a.44.44 0 0 0 .3.08.45.45 0 0 0 .15-.18l3.35-4.34.1-.07a.18.18 0 0 0 0-.14.27.27 0 0 0 -.08-.17z" fill="#fff"/><path d="m880.67 228.38c-.31-.09-.6.11-.86.49a2.65 2.65 0 0 0 -.31 1.17 2.38 2.38 0 0 0 .15 1.18c.18.44.43.66.75.67.3 0 .57-.14.82-.52a2 2 0 0 0 .39-1.16 2.36 2.36 0 0 0 -.17-1.23c-.19-.43-.43-.63-.75-.62m-.34.84a.43.43 0 0 1 .29-.22c.08 0 .15.1.21.25a1.79 1.79 0 0 1 .12.91 1.7 1.7 0 0 1 -.23.86.25.25 0 0 1 -.26.24.26.26 0 0 1 -.24-.27 2 2 0 0 1 -.11-.87 1.85 1.85 0 0 1 .24-.86m-3.27-.61c-.33-.09-.65.13-.94.54a3.47 3.47 0 0 0 -.18 2.68c.2.49.47.74.83.74.35.09.68-.12 1-.58a2.59 2.59 0 0 0 .43-1.32 2.76 2.76 0 0 0 -.2-1.36q-.29-.72-.84-.72m.26.95a2.33 2.33 0 0 1 .16 1.08 1.88 1.88 0 0 1 -.28 1c-.11.2-.23.3-.35.31-.11 0-.2-.14-.29-.35a2.44 2.44 0 0 1 -.12-1.07 2.56 2.56 0 0 1 .28-1 .62.62 0 0 1 .38-.29.5.5 0 0 1 .3.33m-9.91-17.4a5.48 5.48 0 0 0 -1.5 3.74 24.32 24.32 0 0 0 .34 6.43c.37 1.54.77 3.06 1.19 4.57a24.42 24.42 0 0 1 .64 5.9 11.88 11.88 0 0 1 -1.65 6.48q-1.46 2.72-3.84 7.37a.37.37 0 0 0 0 .31.41.41 0 0 0 .19.24.5.5 0 0 0 .32 0 .38.38 0 0 0 .23-.2q2.38-4.61 3.85-7.35a12.57 12.57 0 0 0 1.76-6.9 25.1 25.1 0 0 0 -.66-6.11c-.42-1.49-.82-3-1.18-4.53a23 23 0 0 1 -.34-6.19 4.8 4.8 0 0 1 1.25-3.24 3.44 3.44 0 0 1 2-.89c.47-.08.92-.15 1.36-.18a12.7 12.7 0 0 1 4.67.51 17.85 17.85 0 0 1 4.06 1.56 7.11 7.11 0 0 1 2 2.61 13.93 13.93 0 0 1 .93 4.95v2.58q-.06 1.17-.15 2.67a33.13 33.13 0 0 1 -.58 4.2 9 9 0 0 1 -1.76 3.6 8.21 8.21 0 0 1 -3.1 2l-1.78.78-2 .81c-3.42 1.15-4.81 4.1-4.24 8.93a.4.4 0 0 0 .14.26.44.44 0 0 0 .31.09.36.36 0 0 0 .27-.15.34.34 0 0 0 .08-.29q-.76-6.49 3.73-8.07l2-.82 1.64-.66a8.69 8.69 0 0 0 3.41-2.25 9.43 9.43 0 0 0 2-3.92 34.18 34.18 0 0 0 .61-4.28c.07-1 .12-1.9.16-2.69.06-1.11.07-2 .05-2.65a15.1 15.1 0 0 0 -1-5.27 7.9 7.9 0 0 0 -2.22-2.93 18.22 18.22 0 0 0 -4.29-1.68 13.53 13.53 0 0 0 -5-.55c-.46 0-.94.1-1.42.18a4.18 4.18 0 0 0 -2.52 1z" fill="#e17107"/><path d="m880.63 229a.38.38 0 0 0 -.29.22 2 2 0 0 0 -.23.87 1.85 1.85 0 0 0 .1.87.26.26 0 0 0 .24.26.24.24 0 0 0 .26-.23 1.55 1.55 0 0 0 .23-.86 1.7 1.7 0 0 0 -.11-.92c-.07-.15-.14-.23-.21-.25m-3.14 1.65a2.19 2.19 0 0 0 -.16-1.07c-.08-.2-.17-.31-.3-.33a.59.59 0 0 0 -.38.29 2.68 2.68 0 0 0 -.28 1 2.29 2.29 0 0 0 .13 1.07c.09.21.18.33.28.36.11 0 .24-.12.36-.31a2 2 0 0 0 .36-1z" fill="#fff"/><path d="m882.13 243.7a.59.59 0 0 0 .35-.31.72.72 0 0 0 0-.48.67.67 0 0 0 -.31-.35.69.69 0 0 0 -.47 0q-9.6 3.45-13.33 0l-.7 1a3.86 3.86 0 0 0 .66.55q4.26 3.02 13.8-.41z" fill="#fff"/><path d="m882.69 242.16a1.16 1.16 0 0 0 -.24-.14 1.14 1.14 0 0 0 -.94-.05q-8.46 3-12.13.58a.87.87 0 0 0 -1 0q3.74 3.42 13.32 0a.72.72 0 0 1 .48 0 .67.67 0 0 1 .31.35.79.79 0 0 1 0 .48.59.59 0 0 1 -.35.31q-9.54 3.44-13.79.44a.69.69 0 0 0 .28.93q4.5 2.53 13.68-.79a1.29 1.29 0 0 0 .69-.63v-.2a1.08 1.08 0 0 0 -.31-1.28z" fill="#e17107"/><path d="m808.47 247.27a.54.54 0 0 0 -.21-.05.37.37 0 0 0 -.2.07l-1.59 1.21-1.72-1a.39.39 0 0 0 -.21-.06.82.82 0 0 0 -.19.09.52.52 0 0 0 -.11.19.38.38 0 0 0 0 .21l.74 1.82-1.39 1.31a.45.45 0 0 0 -.05.19.28.28 0 0 0 0 .22.21.21 0 0 0 .13.16.29.29 0 0 0 .2.05l2-.05.81 1.87a.25.25 0 0 0 .14.16.24.24 0 0 0 .2.06.35.35 0 0 0 .32-.26l.55-2 2-.13a.3.3 0 0 0 .2-.08.27.27 0 0 0 .11-.18.3.3 0 0 0 0-.21.29.29 0 0 0 -.13-.16l-1.87-1.1.52-1.93a.6.6 0 0 0 0-.23.7.7 0 0 0 -.14-.16" fill="#e17107"/><path d="m807.26 250.84a.31.31 0 0 0 -.11.19l-.35 1.28-.49-1.16a.45.45 0 0 0 -.13-.17.43.43 0 0 0 -.22-.06h-1.25l.9-.79a.42.42 0 0 0 .11-.18.28.28 0 0 0 0-.2l-.45-1.15 1.08.61a.41.41 0 0 0 .19 0 .34.34 0 0 0 .19-.07l1-.76-.26 1.16a.41.41 0 0 0 0 .22.65.65 0 0 0 .13.16l1.06.68-1.2.09a.41.41 0 0 0 -.19.08" fill="#fff"/><g clip-path="url(#a)"><path d="m684.06 314.21c-1.46-2.42-3-4.83-4.56-7.2a240.67 240.67 0 0 0 -41.14-47.51 233.18 233.18 0 0 0 -20.23-15.92c0-.74-.14-1.53-.24-2.37a.78.78 0 0 0 0-.22q.18-7.11-3.08-11.82-1.49-2.5-7-5.45c-5.51-2.95 0 0-.06-.08a161 161 0 0 0 -37.57-15.22q-7.47-2.85-11.95-1.17-3.63.45-9.4 5.78a122.08 122.08 0 0 0 -14.83-3.63q-60.26-11.82-115.2 6.6a13 13 0 0 1 -1.06-1.27 4.69 4.69 0 0 0 -.47-.53l-2.81-2.58a8.81 8.81 0 0 0 -5.75-2.68 21 21 0 0 0 -7.54.41.11.11 0 0 1 -.14 0q-38.03 10.27-67.52 40.36a2.93 2.93 0 0 0 -.81 1.86 2.84 2.84 0 0 0 .46 2 31.68 31.68 0 0 1 4.28 9.32 213 213 0 0 0 -66 100.31 54.67 54.67 0 0 1 -5.24 2.78 1.85 1.85 0 0 1 -.33.21l-2.58 1.73-.25.17a50.19 50.19 0 0 0 -7.88 7.88.26.26 0 0 1 -.11.2q-3.69 5.58-6.74 22.43a181.71 181.71 0 0 0 -2.47 26.33.82.82 0 0 0 0 .22q.21 6.85 1.16 7.85c.63 1.23 2.17 2.17 4.65 2.81h.13c2.16.64 3.54 1 4.12 1.11a18.76 18.76 0 0 1 4 1.32q.44 64.68 38.72 122.22a242.29 242.29 0 0 0 42 48.45q6.88 5.94 14.17 11.15a236.72 236.72 0 0 0 27.74 17.07 28 28 0 0 1 0 7.09 2.3 2.3 0 0 0 .05.45 50.17 50.17 0 0 0 .36 6.13q-.43 2.47 5.28 7.57a2.63 2.63 0 0 0 .49.39c2.15 1.31 4.22 2.53 6.2 3.7q23.67 13.83 49.15 15.59a.74.74 0 0 0 .21 0q9.18-.09 11.46-.88a3 3 0 0 0 .72-.36 54.65 54.65 0 0 0 8.13-6.24l7.86-7.9a218.56 218.56 0 0 0 37.16-.5q55.6-5.56 104.82-40.62h.08q10.35-7.57 20.08-15.78 9 2.09 24.41 1.57a2.8 2.8 0 0 0 1.86-.63 150.93 150.93 0 0 0 34.59-40.49 145.93 145.93 0 0 0 18.75-49.43 4.31 4.31 0 0 0 -.08-1.39 3.1 3.1 0 0 0 -.59-1.05 87.32 87.32 0 0 1 -9.08-13.47 180.61 180.61 0 0 0 7.22-24.43l-.06-.08a196.37 196.37 0 0 0 5.58-56.94 247.44 247.44 0 0 0 -3.62-31.66.22.22 0 0 1 0-.14c-.3-1.86-.62-3.68-1-5.48l-.06-.08a122.84 122.84 0 0 0 -5.34-17.28v.22a212.94 212.94 0 0 0 -23.16-50.84m-9.56-3.87q2.28 3.43 4.38 6.95l.06.09a207.45 207.45 0 0 1 22.64 49.4.58.58 0 0 0 .08.31 116.86 116.86 0 0 1 5.11 16.35c.35 1.68.66 3.41.91 5.17a.08.08 0 0 0 .06.08 247.33 247.33 0 0 1 3.44 31.06l.06.08a191.64 191.64 0 0 1 -5.33 55.21l-.08.06a169.88 169.88 0 0 1 -7.39 24.9 3.61 3.61 0 0 0 -.2 1.34 3.05 3.05 0 0 0 .34 1.22 92.74 92.74 0 0 0 9.53 14.5 140.16 140.16 0 0 1 -17.69 46.11 145 145 0 0 1 -32.46 38.22q-15 .38-23.22-1.76a3.49 3.49 0 0 0 -1.44 0 3 3 0 0 0 -1.28.61q-10.14 8.53-21 16.46-47.84 34.14-101.92 39.55a210.91 210.91 0 0 1 -37.44.36 4.19 4.19 0 0 0 -2.43.88l-8.79 8.87a47.64 47.64 0 0 1 -6.76 5.23 61.37 61.37 0 0 1 -9.29.52h.23a105.53 105.53 0 0 1 -46.5-14.7c-1.92-1.13-3.89-2.34-5.92-3.65-1.7-1.42-2.73-2.13-3.11-2.14a2.85 2.85 0 0 0 -.42-2.25 28.58 28.58 0 0 0 0-4.34.23.23 0 0 0 0-.14 1.33 1.33 0 0 1 0-.28 35.56 35.56 0 0 0 -.46-9.93 3.43 3.43 0 0 0 -.56-1.19 3.87 3.87 0 0 0 -.93-.92 232.16 232.16 0 0 1 -28.35-17.28q-7-5.09-13.72-10.86a235.5 235.5 0 0 1 -41-47.27q-37.81-56.79-37.77-120.79a2.5 2.5 0 0 0 -.36-1.44 3.23 3.23 0 0 0 -1.14-1.18 24.52 24.52 0 0 0 -7.28-2.58c-.52-.13-1.78-.5-3.76-1.12-.44-.09-.87-.2-1.3-.33-.08-.44-.17-2-.28-4.76v.22a177.31 177.31 0 0 1 2.36-25.4q2.68-14.89 5.77-20.1a43.7 43.7 0 0 1 6.87-6.86l2.33-1.56a51.82 51.82 0 0 0 6.42-3.51 3 3 0 0 0 1.2-1.64 207.53 207.53 0 0 1 66.05-99.73 2.79 2.79 0 0 0 .83-1.28 3.09 3.09 0 0 0 .13-1.65 39 39 0 0 0 -4.22-11q27.54-27.5 62.89-37a.3.3 0 0 0 .17-.12 16.47 16.47 0 0 1 5.33-.3 3 3 0 0 0 .43.09 3.68 3.68 0 0 1 2 1.06l2.45 2.2a24.51 24.51 0 0 0 3 3.25 2.29 2.29 0 0 0 1.45.72 2.49 2.49 0 0 0 1.66 0q54.29-18.64 113.9-6.92l.09-.05a111.63 111.63 0 0 1 15.59 4.07 2.89 2.89 0 0 0 1.72 0 2.52 2.52 0 0 0 1.39-.8q5-4.85 7.6-5.42a1.59 1.59 0 0 0 .83-.2c2-.58 4.74-.2 8.23 1.16a.64.64 0 0 0 .34.13 154 154 0 0 1 36.15 14.71.12.12 0 0 0 .14 0 16.54 16.54 0 0 1 4.87 3.51 15 15 0 0 1 2.07 8.73v.5c.17 1.26.29 2.47.36 3.61a2.77 2.77 0 0 0 .3 1.36 3 3 0 0 0 .92 1.08 220.68 220.68 0 0 1 21 16.32 234.25 234.25 0 0 1 40.08 46.3m-405 79.54a1.29 1.29 0 0 0 -.09 1.13q5.34 15-5.66 27.86a1.66 1.66 0 0 0 -.37 1.09 1.51 1.51 0 0 0 .58 1 1.27 1.27 0 0 0 1.09.36 1.18 1.18 0 0 0 1-.52q12.17-14.24 6.2-30.86a1.52 1.52 0 0 0 -.78-.8 1.86 1.86 0 0 0 -1.14-.09 1.43 1.43 0 0 0 -.8.78m96.17-22.79.06.09a37.32 37.32 0 0 1 1.94 7.25 1.42 1.42 0 0 0 .59 1.05 1.21 1.21 0 0 0 1.1.22 1.19 1.19 0 0 0 1-.52 1.55 1.55 0 0 0 .31-1.17 40.19 40.19 0 0 0 -2.11-7.86l.06.07q-3.43-11-11.26-12.73a.09.09 0 0 1 -.08.05q-8.91-1.49-17.13 7.19-7.35 8.06-9.41 21.67v-.14q-3.23 13.71 1.13 23.81v-.23q2.94 11.58 11 13l.06.08q7.14 1.26 13.84-3.93a1.6 1.6 0 0 0 .58-1.11 1.24 1.24 0 0 0 -.3-1 1.78 1.78 0 0 0 -1-.63 1.66 1.66 0 0 0 -1.09.35q-5.53 4.34-11.51 3.33-6.36-1.35-8.75-10.8a1.67 1.67 0 0 0 -.08-.3q-4-9.29-1-21.88a.1.1 0 0 1 -.06-.08q1.92-12.63 8.67-20.1 7-7.35 14.49-6.27h-.14q6.2 1.61 9 10.63m99.53-36.63c1.05-1.39 2-2.65 2.93-3.78a1.24 1.24 0 0 0 .36-1.08 1.46 1.46 0 0 0 -.45-1 1.64 1.64 0 0 0 -1.08-.36 1.83 1.83 0 0 0 -1.12.5q-1.41 1.75-3 3.94-5.52 8.18-2.62 16l-.05-.08q2.42 8.22 12.06 10.51 8.73 3.78 18.87-.4l-.09.06q10.73-3.16 16.11-11.44 6-7.2 2.9-15.54a6.1 6.1 0 0 0 -2.27-4.51 1.76 1.76 0 0 0 -1.08-.36 1.44 1.44 0 0 0 -.92.61 1.39 1.39 0 0 0 -.36 1.08 1.25 1.25 0 0 0 .52 1 3.92 3.92 0 0 1 1.2 2.69.65.65 0 0 0 .08.31q2.52 7-2.51 12.84a.72.72 0 0 1 -.11.19q-4.77 7.49-14.31 10.28c-.06.06-.11.11-.17.11q-9 3.62-16.63.35a.53.53 0 0 1 -.22 0q-8-1.92-10.06-8.6l-.05-.08q-2.32-6.42 2.29-13.2l-.09.05m170.56-19.08a1.61 1.61 0 0 0 0 1.22q4.42 10.14 1.51 15.85l-.06-.09q-3.37 5.88-13.62 2.69l-.06-.07q-11.34-4-24.51-16.2-13.43-11.37-19.34-24.08l-.05-.08q-7.06-12.12-4-17.79l-.09.05q3.66-5.3 13.87-2.86a1.53 1.53 0 0 0 1.2-.18 1.36 1.36 0 0 0 .61-.9 1.58 1.58 0 0 0 -.19-1.2 1.34 1.34 0 0 0 -.89-.61q-12.7-3-17.1 4.16-4.2 6.69 3.88 20.66 6.13 13.31 20.08 25.15 13.71 12.71 25.55 16.84l.08-.06q13.07 4.17 17.21-4 3.78-6.72-1.35-18.49a1.56 1.56 0 0 0 -.78-.8 1.8 1.8 0 0 0 -1.17.05 1.46 1.46 0 0 0 -.8.78m-230.8-84.41a1.67 1.67 0 0 0 .3-1.17 1.4 1.4 0 0 0 -.61-.91 1.72 1.72 0 0 0 -1.17-.31 1.51 1.51 0 0 0 -.91.61q-15.37 21.06-44.23 27.27a1.53 1.53 0 0 0 -1.22 1.78 1.46 1.46 0 0 0 .75 1 1.26 1.26 0 0 0 1.11.22q30-6.48 46-28.47m13.64 329.83-.06-.09a69.59 69.59 0 0 1 13.58 10.83 59.43 59.43 0 0 1 5.17 6.67q7.44 11.19 3.16 19.94-4.2 7.8-15.49 9.14a1.48 1.48 0 0 0 -.92.61 1.37 1.37 0 0 0 -.37 1.09 1.24 1.24 0 0 0 .53 1 1.28 1.28 0 0 0 1.17.31q13.1-1.56 17.78-10.74 5.19-10.1-3.36-22.94a64.17 64.17 0 0 0 -5.38-7l-.06-.08a73.32 73.32 0 0 0 -14.32-11.38q-2.51-1.32-4.8-2.7a.1.1 0 0 1 -.14 0q-16.43-8.07-31.42-6.66l.09-.07a15.44 15.44 0 0 0 -2 .26q-13.69 1.2-18.39 10.58v.14q-5.88 9.81 2.9 23a56.67 56.67 0 0 0 6.47 8.09 1.1 1.1 0 0 0 .25.19c2.07 1.59 3.9 3 5.5 4.29a1.29 1.29 0 0 0 1.09.37 1.44 1.44 0 0 0 1-.58 1.25 1.25 0 0 0 .29-1 1.76 1.76 0 0 0 -.51-1.12c-1.58-1.24-3.4-2.65-5.44-4.2a53.29 53.29 0 0 1 -6.2-7.68q-7.62-11.43-2.79-19.93c4.82-8.5 0 0 .08 0q4.17-8.14 16.28-9.09a1.14 1.14 0 0 0 .69-.23 3.29 3.29 0 0 0 .94 0q14.24-1.24 29.75 6.36c0 .06 0 .09.06.08q2.33 1.36 4.8 2.7m272.92-34.64a1.7 1.7 0 0 0 -1.08.36q-31.32 24.62-36.08 63.17a1.41 1.41 0 0 0 .27 1.14 1.28 1.28 0 0 0 1 .55 1.38 1.38 0 0 0 1.14-.27 1.71 1.71 0 0 0 .64-1q4.59-37.32 34.92-61.16a1.66 1.66 0 0 0 .58-1.11 1.33 1.33 0 0 0 -.3-1 1.9 1.9 0 0 0 -1-.64m-133.66-6.88a1.56 1.56 0 0 0 1.07.5 29.19 29.19 0 0 1 9.59 2.29v.08q13.46 4.44 17.53 16.76 3.8 12.51-3.77 23.77-7.86 12.42-22.95 17.09-14.83 5.24-28.56.7l.21.11q-12.87-5.52-16.54-17.41-3.95-11.74 2.91-24.08a.32.32 0 0 0 0-.14 35.53 35.53 0 0 1 2.82-3.56 1.26 1.26 0 0 0 .41-1 1.78 1.78 0 0 0 -.5-1.11 1.7 1.7 0 0 0 -1.08-.36 1.56 1.56 0 0 0 -1 .44 31.9 31.9 0 0 0 -3.2 4.06.15.15 0 0 1 -.09.06q-7.54 13.65-3.1 26.63l-.06-.09q4 13.2 18.26 19.29s0 .07.05.08q14.67 4.83 30.53-.82l-.09.06q16.11-4.95 24.52-18.35l.07.08q8.35-12.52 4.09-26.44-4.49-13.77-19.45-18.73l.19.12a31.6 31.6 0 0 0 -10.63-2.71 1.45 1.45 0 0 0 -1.09.35 1.51 1.51 0 0 0 -.49 1.06 1.45 1.45 0 0 0 .35 1.09m112.83-84.5a57 57 0 0 0 1-16.07 43.65 43.65 0 0 0 -.67-5.7v.14a16.61 16.61 0 0 0 -.86-4.36q-3.07-8.75-7.71-11.65a7.22 7.22 0 0 0 -4.94-2.39q-9.4-1.87-17.22 8l.08-.07a33.2 33.2 0 0 0 -4.93 7.26 1.24 1.24 0 0 0 -.08 1.14 1.18 1.18 0 0 0 .69.86 1.21 1.21 0 0 0 1.14.09 1.44 1.44 0 0 0 .94-.75 29.26 29.26 0 0 1 4.43-6.55l.08-.06q6.52-8.25 14.26-7a.33.33 0 0 0 .29 0 4.26 4.26 0 0 1 3.08 1.56.73.73 0 0 0 .39.22q4 2.56 6.7 10.24v.08a15.27 15.27 0 0 1 .67 3.54v.14a39.74 39.74 0 0 1 .66 5.34v.08a54.23 54.23 0 0 1 -1 15.2l-.08.06q-2.38 14.13-10.17 22.9-7.06 8.46-14.27 7-7.15-1.5-10.44-11.35a.15.15 0 0 1 -.06-.09.71.71 0 0 1 0-.14 16.06 16.06 0 0 0 -1.41-4.83 1.51 1.51 0 0 0 -2.79.16 1.49 1.49 0 0 0 .06 1.17 13.69 13.69 0 0 1 1.19 4.1.49.49 0 0 0 .09.31q3.86 12 12.75 13.56h-.08q8.76 2.19 17.21-8 8.34-9.3 10.89-24.34z" fill="#e17107"/><path d="m678.88 317.29q-2.1-3.5-4.39-7a234.25 234.25 0 0 0 -40.08-46.29 221.12 221.12 0 0 0 -20.95-16.28 3 3 0 0 1 -.92-1.07 2.8 2.8 0 0 1 -.31-1.36c-.07-1.15-.18-2.35-.35-3.62v-.5a15.09 15.09 0 0 0 -2.07-8.73 16.51 16.51 0 0 0 -4.81-3.44.14.14 0 0 1 -.14 0 153.44 153.44 0 0 0 -36.16-14.71.85.85 0 0 1 -.34-.14q-5.22-2-8.22-1.15a1.52 1.52 0 0 1 -.83.19q-2.61.59-7.6 5.42a2.47 2.47 0 0 1 -1.39.81 2.81 2.81 0 0 1 -1.72-.06 112.14 112.14 0 0 0 -15.6-4.09h-.08q-59.6-11.72-113.9 6.92a2.52 2.52 0 0 1 -1.67 0 2.22 2.22 0 0 1 -1.44-.72 24.59 24.59 0 0 1 -3-3.25l-2.44-2.2a3.78 3.78 0 0 0 -2-1.06 3.15 3.15 0 0 1 -.42-.09 16.47 16.47 0 0 0 -5.33.3.33.33 0 0 1 -.17.12q-35.35 9.56-62.89 37a39 39 0 0 1 4.22 11 3.2 3.2 0 0 1 -.13 1.65 2.9 2.9 0 0 1 -.84 1.28 207.67 207.67 0 0 0 -66.05 99.73 2.94 2.94 0 0 1 -1.19 1.64 52.55 52.55 0 0 1 -6.42 3.51l-2.33 1.56a44.19 44.19 0 0 0 -6.88 6.86q-3.09 5.2-5.76 20.1a175.88 175.88 0 0 0 -2.36 25.4v-.22c.1 2.74.2 4.32.27 4.76a12 12 0 0 0 1.31.33c2 .62 3.23 1 3.76 1.12a24.46 24.46 0 0 1 7.27 2.58 3.25 3.25 0 0 1 1.15 1.18 2.49 2.49 0 0 1 .35 1.44q0 64 37.78 120.79a235.5 235.5 0 0 0 41 47.27q6.66 5.77 13.72 10.86a231.16 231.16 0 0 0 28.26 17.29 4.06 4.06 0 0 1 .93.92 3.15 3.15 0 0 1 .56 1.2 35.12 35.12 0 0 1 .46 9.92v.28a.32.32 0 0 1 0 .14 28.71 28.71 0 0 1 0 4.35 2.88 2.88 0 0 1 .41 2.25c.38 0 1.42.74 3.11 2.14q3.08 2 5.92 3.65a105.7 105.7 0 0 0 46.5 14.7h-.22a60.17 60.17 0 0 0 9.29-.52 48.9 48.9 0 0 0 6.76-5.22l8.78-8.87a4.22 4.22 0 0 1 2.43-.88 211 211 0 0 0 37.45-.37q54.08-5.41 101.91-39.54 10.82-7.9 21-16.47a3 3 0 0 1 1.28-.61 3.72 3.72 0 0 1 1.45 0q8.25 2.12 23.21 1.76a145.07 145.07 0 0 0 32.47-38.23 139.84 139.84 0 0 0 17.51-45.92 93.37 93.37 0 0 1 -9.53-14.49 3.08 3.08 0 0 1 -.33-1.22 3.38 3.38 0 0 1 .19-1.34 170 170 0 0 0 7.4-24.91l.08-.05a191.7 191.7 0 0 0 5.36-55.24v-.09a247.19 247.19 0 0 0 -3.45-31.05.11.11 0 0 1 0-.09c-.26-1.75-.56-3.48-.92-5.17a117.27 117.27 0 0 0 -5.11-16.35.53.53 0 0 1 -.07-.3 207.6 207.6 0 0 0 -22.63-49.37l-.06-.08m-7.37 97.65a56.28 56.28 0 0 1 -1 16.07q-2.54 15-10.89 24.34-8.45 10.15-17.21 8l.09-.05q-8.91-1.59-12.75-13.56a.41.41 0 0 1 -.09-.3 13.67 13.67 0 0 0 -1.19-4.11 1.49 1.49 0 0 1 -.06-1.17 1.42 1.42 0 0 1 .75-.86 1.49 1.49 0 0 1 1.17-.06 1.44 1.44 0 0 1 .86.76 16.34 16.34 0 0 1 1.42 4.84.59.59 0 0 0 0 .14.18.18 0 0 0 .07.08q3.28 9.84 10.44 11.35 7.19 1.56 14.27-7 7.79-8.78 10.16-22.9l.09-.06a54.2 54.2 0 0 0 1-15.2l-.06-.08a36.75 36.75 0 0 0 -.66-5.34v-.14a15.25 15.25 0 0 0 -.66-3.54l-.06-.08q-2.73-7.69-6.69-10.24a.73.73 0 0 1 -.4-.22 4.22 4.22 0 0 0 -3.07-1.56.33.33 0 0 1 -.29 0q-7.74-1.28-14.26 7l-.09.06a29.78 29.78 0 0 0 -4.43 6.56 1.41 1.41 0 0 1 -.94.74 1.42 1.42 0 0 1 -1.83-.95 1.24 1.24 0 0 1 .09-1.14 32.56 32.56 0 0 1 4.93-7.25l-.09.06q7.8-9.84 17.22-8a7.25 7.25 0 0 1 4.95 2.4q4.62 2.85 7.71 11.64a16.61 16.61 0 0 1 .86 4.36v-.14a42 42 0 0 1 .66 5.7m-112.69 100.85a1.52 1.52 0 0 1 -1.07-.5 1.43 1.43 0 0 1 -.35-1.09 1.47 1.47 0 0 1 .49-1 1.45 1.45 0 0 1 1.09-.36 31.9 31.9 0 0 1 10.61 2.6l-.19-.12q15 4.95 19.45 18.73 4.29 13.9-4.1 26.44l-.06-.09q-8.38 13.38-24.52 18.36l.09-.06q-15.86 5.64-30.53.82c-14.68-4.83 0 0-.06-.09q-14.24-6.08-18.26-19.28l.07.08q-4.46-13 3.1-26.62a.15.15 0 0 0 .09-.06 32 32 0 0 1 3.19-4.06 1.56 1.56 0 0 1 1-.44 1.65 1.65 0 0 1 1.09.36 1.77 1.77 0 0 1 .49 1.11 1.2 1.2 0 0 1 -.41 1 35.73 35.73 0 0 0 -2.81 3.56.34.34 0 0 1 0 .14q-6.84 12.35-2.9 24.08 3.68 11.89 16.53 17.41l-.2-.12q13.74 4.56 28.55-.69 15.09-4.62 23-17.09 7.54-11.3 3.76-23.78-4-12.34-17.52-16.75c-13.49-4.39 0 0-.06-.08a28.82 28.82 0 0 0 -9.59-2.29m131.52 6.74a1.7 1.7 0 0 1 1.08-.36 1.84 1.84 0 0 1 1 .64 1.25 1.25 0 0 1 .3 1 1.61 1.61 0 0 1 -.57 1.1q-30.33 23.85-34.92 61.17a1.68 1.68 0 0 1 -.65 1 1.39 1.39 0 0 1 -1.13.27 1.29 1.29 0 0 1 -1-.56 1.31 1.31 0 0 1 -.27-1.13q4.77-38.54 36.08-63.17m-271.79 34.12.05.09c-1.65-.88-3.25-1.79-4.8-2.7l-.06-.08q-15.51-7.61-29.74-6.36a3.36 3.36 0 0 1 -.95 0 1.14 1.14 0 0 1 -.69.23q-12.1.95-16.27 9c-4.16 8.09-.07.06-.08.05q-4.83 8.49 2.79 19.93a53.22 53.22 0 0 0 6.19 7.68c2.05 1.56 3.86 3 5.45 4.21a1.78 1.78 0 0 1 .5 1.11 1.24 1.24 0 0 1 -.28 1 1.42 1.42 0 0 1 -1.05.58 1.27 1.27 0 0 1 -1.08-.37q-2.4-1.92-5.5-4.28l-.25-.19a56.62 56.62 0 0 1 -6.47-8.1q-8.79-13.19-2.9-23c5.89-9.8 0-.06 0-.14q4.69-9.34 18.39-10.58a13.76 13.76 0 0 1 2-.25l-.08.06q15-1.35 31.42 6.72a.1.1 0 0 0 .14 0c1.53.93 3.13 1.82 4.8 2.7a73.32 73.32 0 0 1 14.28 11.33l.06.08a64.17 64.17 0 0 1 5.38 7q8.56 12.84 3.36 22.94-4.68 9.18-17.78 10.75a1.31 1.31 0 0 1 -1.17-.32 1.23 1.23 0 0 1 -.53-1 1.38 1.38 0 0 1 .37-1.08 1.4 1.4 0 0 1 .92-.61q11.32-1.34 15.48-9.11 4.29-8.76-3.15-19.94a59.81 59.81 0 0 0 -5.17-6.68 69.46 69.46 0 0 0 -13.58-10.82m-13.3-330.79a1.67 1.67 0 0 1 -.3 1.17q-16 22-46 28.47a1.28 1.28 0 0 1 -1.12-.22 1.48 1.48 0 0 1 -.74-1 1.52 1.52 0 0 1 1.22-1.78q28.86-6.22 44.23-27.27a1.51 1.51 0 0 1 .91-.61 1.73 1.73 0 0 1 1.17.31 1.44 1.44 0 0 1 .61.91m230.41 86.58a1.64 1.64 0 0 1 0-1.23 1.54 1.54 0 0 1 .81-.78 1.77 1.77 0 0 1 1.16 0 1.56 1.56 0 0 1 .78.8q5.08 11.81 1.35 18.49-4.12 8.15-17.21 4l-.08.06q-11.81-4.14-25.5-16.9-14-11.83-20.09-25.14-8.07-14-3.88-20.66 4.41-7.19 17.1-4.16a1.32 1.32 0 0 1 .89.61 1.54 1.54 0 0 1 .2 1.2 1.33 1.33 0 0 1 -.62.89 1.49 1.49 0 0 1 -1.2.19q-10.2-2.43-13.86 2.86l.08-.05q-3.06 5.67 4 17.79l.06.08q5.91 12.76 19.3 24.12 13.16 12.27 24.52 16.27l.06.08q10.26 3.18 13.62-2.69l.06.09q2.91-5.7-1.51-15.85m-167.64 14.09q-1.37 1.68-2.92 3.79l.08-.06q-4.61 6.8-2.28 13.2l.05.09q2.07 6.66 10.05 8.6a.55.55 0 0 0 .22 0q7.68 3.28 16.63-.35a.22.22 0 0 0 .17-.11q9.57-2.79 14.41-10.2a.59.59 0 0 0 .11-.19q5-5.87 2.51-12.84a.65.65 0 0 1 -.08-.31 3.92 3.92 0 0 0 -1.2-2.69 1.24 1.24 0 0 1 -.52-1 1.4 1.4 0 0 1 .36-1.09 1.48 1.48 0 0 1 .92-.61 1.76 1.76 0 0 1 1.08.36 6.1 6.1 0 0 1 2.27 4.51q3.08 8.36-2.9 15.54-5.4 8.31-16.11 11.44h.09q-10.17 4.2-18.87.39-9.65-2.32-12.06-10.51l.05.09q-2.91-7.78 2.62-16 1.62-2.19 3-3.94a1.83 1.83 0 0 1 1.12-.5 1.7 1.7 0 0 1 1.08.36 1.46 1.46 0 0 1 .45 1 1.24 1.24 0 0 1 -.36 1.08m-102.36 40.52-.07-.08q-2.79-9-9-10.63h.14q-7.5-1.09-14.49 6.27-6.76 7.49-8.67 20.1a.13.13 0 0 0 .07.09q-3 12.6.95 21.87a1.58 1.58 0 0 1 .09.31q2.39 9.43 8.74 10.79 5.94 1 11.51-3.33a1.66 1.66 0 0 1 1.09-.35 1.82 1.82 0 0 1 1 .63 1.32 1.32 0 0 1 .3 1 1.62 1.62 0 0 1 -.58 1.1q-6.66 5.23-13.87 3.93l-.07-.09q-8.12-1.41-11-13v.23q-4.38-10.11-1.13-23.81v.14q2.07-13.62 9.41-21.67 8.24-8.67 17.13-7.19a.11.11 0 0 0 .09 0q7.81 1.71 11.25 12.73l-.05-.07a41.07 41.07 0 0 1 2.1 7.86 1.53 1.53 0 0 1 -.31 1.17 1.18 1.18 0 0 1 -1 .52 1.25 1.25 0 0 1 -1.11-.21 1.43 1.43 0 0 1 -.59-1.05 37.92 37.92 0 0 0 -1.93-7.26m-96.25 23.83a1.32 1.32 0 0 1 .09-1.13 1.47 1.47 0 0 1 .81-.78 1.83 1.83 0 0 1 1.13.09 1.56 1.56 0 0 1 .78.8q6 16.62-6.19 30.86a1.41 1.41 0 0 1 -2.06.16 1.42 1.42 0 0 1 -.58-1.05 1.68 1.68 0 0 1 .36-1.08q11-12.93 5.64-28z" fill="#fff"/></g><path d="m217.75 292h532v55.2h-532z" fill="url(#b)"/><path d="m440.65 46.7-1.9-5h-7.7l-1.9 5h-1.4l6.4-16.6h1.6l6.4 16.6zm-9.1-6.1h6.8l-3.4-9z" fill="#999"/><path d="m459.85 46.7v-8.2a3.71 3.71 0 0 0 -.6-2.3 2.14 2.14 0 0 0 -1.8-.7 7 7 0 0 0 -4.3 1.5c0 .4.1.8.1 1.1v8.5h-1.4v-8.2a3.71 3.71 0 0 0 -.6-2.3 2.14 2.14 0 0 0 -1.8-.7 7.25 7.25 0 0 0 -4.3 1.5v9.7h-1.4v-11.9h1.25l.1 1.3a7.24 7.24 0 0 1 2.3-1.2 10.11 10.11 0 0 1 2.3-.4 2.93 2.93 0 0 1 3 1.8 14.92 14.92 0 0 1 2.4-1.4 7.42 7.42 0 0 1 2.5-.5 3.33 3.33 0 0 1 2.5.9 3.67 3.67 0 0 1 .9 2.7v8.8z" fill="#999"/><path d="m471.35 46.7-.1-1.4a6.91 6.91 0 0 1 -4.25 1.7 3.28 3.28 0 0 1 -3.6-3.4 3.49 3.49 0 0 1 1.2-2.8 4.83 4.83 0 0 1 3.3-1 10.61 10.61 0 0 1 3.4.6v-2a2.54 2.54 0 0 0 -.7-2.1 3.52 3.52 0 0 0 -2.3-.6 12.91 12.91 0 0 0 -4.1.8v-1.1a6.46 6.46 0 0 1 2.1-.6 9 9 0 0 1 2.3-.2 4.42 4.42 0 0 1 3.1.9 3.34 3.34 0 0 1 1 2.7v8.9h-1.3zm-4.3-1a5.09 5.09 0 0 0 2-.4 20 20 0 0 0 2.1-1v-3a11.48 11.48 0 0 0 -3.1-.4c-2.2 0-3.4.9-3.4 2.6a2.35 2.35 0 0 0 .6 1.7 2.43 2.43 0 0 0 1.8.5z" fill="#999"/><path d="m474.45 46.7v-1.2l7.6-9.6h-7.3v-1.2h8.9v1.2l-7.6 9.6h7.7v1.2z" fill="#999"/><path d="m490.25 47.1a5.2 5.2 0 0 1 -4.1-1.7 6.8 6.8 0 0 1 -1.5-4.7 6.8 6.8 0 0 1 1.5-4.7 5.79 5.79 0 0 1 8.2 0 6.8 6.8 0 0 1 1.5 4.7 6.8 6.8 0 0 1 -1.5 4.7 5.2 5.2 0 0 1 -4.1 1.7zm0-1.3c2.8 0 4.2-1.7 4.2-5.2s-1.4-5.1-4.2-5.1-4.2 1.7-4.2 5.1 1.4 5.2 4.2 5.2z" fill="#999"/><path d="m506.75 46.7v-8.2a3.71 3.71 0 0 0 -.6-2.3 2.23 2.23 0 0 0 -1.9-.7 8.43 8.43 0 0 0 -4.7 1.5v9.6h-1.4v-11.9h1.2l.1 1.4a8.53 8.53 0 0 1 2.5-1.3 7.93 7.93 0 0 1 2.5-.5 3.18 3.18 0 0 1 3.6 3.6v8.8z" fill="#999"/><g fill="#e17107"><path d="m521.75 46.7h-10.3v-16.6h2.4v14.6h7.8v2z"/><path d="m526.05 31a1.16 1.16 0 0 1 -.4 1 1.71 1.71 0 0 1 -2.2 0 1.28 1.28 0 0 1 -.4-1 1.16 1.16 0 0 1 .4-1 1.71 1.71 0 0 1 2.2 0 1.16 1.16 0 0 1 .4 1zm-.3 15.7h-2.4v-12.1h2.4z"/><path d="m538.85 46a5.39 5.39 0 0 1 -5.8 6 8.68 8.68 0 0 1 -4.2-1v-1.7a12.49 12.49 0 0 0 4 .7 3.77 3.77 0 0 0 2.8-.9 4.14 4.14 0 0 0 .9-3v-1.1a5.44 5.44 0 0 1 -1.8 1.1 5 5 0 0 1 -4.5-.3 5.31 5.31 0 0 1 -1.8-2.1 7.94 7.94 0 0 1 -.6-3.2 7.41 7.41 0 0 1 1.4-4.6 4.52 4.52 0 0 1 3.7-1.7 5.54 5.54 0 0 1 3.8 1.5l.2-1.1h2v11.4zm-2.3-8.8a5.48 5.48 0 0 0 -1.5-.8 4.15 4.15 0 0 0 -1.6-.3c-2.1 0-3.1 1.4-3.1 4.2a5.81 5.81 0 0 0 .8 3.2 3 3 0 0 0 2.4 1.1 5.29 5.29 0 0 0 3-1.1z"/><path d="m552.25 46.7h-2.4v-8.1a3.31 3.31 0 0 0 -.5-1.9 2 2 0 0 0 -1.6-.6 6.51 6.51 0 0 0 -3.7 1.2v9.4h-2.4v-17.7h2.4v6.8a7.84 7.84 0 0 1 4.7-1.6 3.18 3.18 0 0 1 3.6 3.6v8.9z"/><path d="m562.05 46.4a7.63 7.63 0 0 1 -2.7.5c-2.3 0-3.4-1.1-3.4-3.4v-7.1h-2.2v-1.5l2.3-.3.4-3.5h1.9v3.4h3.65v1.9h-3.6v6.9c0 .6.1 1 .4 1.2a2.33 2.33 0 0 0 1.4.4 11.08 11.08 0 0 0 1.9-.2v1.7z"/><path d="m569.35 40.1a5.32 5.32 0 0 1 2 1.3 3.17 3.17 0 0 1 .6 2 3.23 3.23 0 0 1 -1.3 2.7 5.29 5.29 0 0 1 -3.4 1 8.57 8.57 0 0 1 -4.1-.9v-1.7a13.18 13.18 0 0 0 4.2.7 3 3 0 0 0 1.8-.5 1.49 1.49 0 0 0 .6-1.3 1 1 0 0 0 -.4-.9 3.53 3.53 0 0 0 -1.4-.7l-2-.8c-1.8-.7-2.7-1.8-2.7-3.4a3 3 0 0 1 1.2-2.5 5.3 5.3 0 0 1 3.2-1 8.63 8.63 0 0 1 3.6.8v1.7a11.2 11.2 0 0 0 -3.5-.6c-1.5 0-2.3.5-2.3 1.6a1.28 1.28 0 0 0 .4 1 9.35 9.35 0 0 0 1.5.8z"/><path d="m583.25 46.7h-2l-.2-1.2a7.61 7.61 0 0 1 -1.9 1.2 5.22 5.22 0 0 1 -2.1.4 3.62 3.62 0 0 1 -2.7-1 3.25 3.25 0 0 1 -1-2.6 3.49 3.49 0 0 1 1.2-2.8 5.11 5.11 0 0 1 3.4-1 11.28 11.28 0 0 1 3 .4v-1.6a2.16 2.16 0 0 0 -.6-1.8 2.83 2.83 0 0 0 -2-.5 12.34 12.34 0 0 0 -4.2.7v-1.7a10.33 10.33 0 0 1 2.1-.7 10.68 10.68 0 0 1 2.5-.3 5.51 5.51 0 0 1 3.4.9 3.69 3.69 0 0 1 1.1 2.9zm-2.25-5.1a10.68 10.68 0 0 0 -2.5-.3q-2.7 0-2.7 2.1a1.74 1.74 0 0 0 1.9 1.9 5.59 5.59 0 0 0 3.3-1.2z"/><path d="m588.65 31a1.16 1.16 0 0 1 -.4 1 1.71 1.71 0 0 1 -2.2 0 1.28 1.28 0 0 1 -.4-1 1.16 1.16 0 0 1 .4-1 1.71 1.71 0 0 1 2.2 0 1.16 1.16 0 0 1 .4 1zm-.3 15.7h-2.35v-12.1h2.4z"/><path d="m595.45 46.6a4.67 4.67 0 0 1 -1.7.3 2.35 2.35 0 0 1 -1.9-.7 3.3 3.3 0 0 1 -.7-2.1v-15h2.4v14.9a1.55 1.55 0 0 0 .2.8c.1.2.4.3.8.3a3.75 3.75 0 0 0 1-.1v1.6z"/><path d="m397 57.9.1-2.9c0-.4.1-10.6-10-13.2a1.38 1.38 0 0 1 -1-1.3 1.3 1.3 0 0 1 1-1.3c10.1-2.7 10-13.1 10-13.2v-2.6l1.9 1.7c.3.2 6.6 6.1 7 14.8.1 5.5-2.2 10.9-7 15.9zm-6.9-17.5a15.22 15.22 0 0 1 9 11.9c3.2-4 4.7-8.1 4.6-12.3a20.44 20.44 0 0 0 -4.6-11.5c-.75 3.4-2.75 9.1-9.05 11.9z"/><path d="m373.15 41.6h-2a1.1 1.1 0 0 1 0-2.2h2a1.1 1.1 0 1 1 0 2.2z"/><path d="m367.55 41.6h-2a1.1 1.1 0 0 1 0-2.2h2a1.1 1.1 0 1 1 0 2.2z"/><path d="m378.55 41.6h-2.4a1.1 1.1 0 0 1 0-2.2h2.4a1.1 1.1 0 1 1 0 2.2z"/><path d="m383.55 41.6h-2a1.1 1.1 0 0 1 0-2.2h2a1.1 1.1 0 1 1 0 2.2z"/><path d="m391.85 27.8a3 3 0 0 1 -3-3 3 3 0 0 1 -3 3 3 3 0 0 1 3 3 3.08 3.08 0 0 1 3-3z"/><path d="m414.25 44.9a3.33 3.33 0 0 1 -3.3-3.3 3.33 3.33 0 0 1 -3.3 3.3 3.33 3.33 0 0 1 3.3 3.3 3.27 3.27 0 0 1 3.3-3.3z"/><path d="m388.85 51.5a4.23 4.23 0 0 1 -4.2-4.2 4.23 4.23 0 0 1 -4.2 4.2 4.23 4.23 0 0 1 4.2 4.2 4.23 4.23 0 0 1 4.2-4.2z"/><path d="m395.55 64.1a23.61 23.61 0 0 1 -23.3-19.6 1.22 1.22 0 0 1 2.4-.4 21 21 0 0 0 20.8 17.5h.1a21.07 21.07 0 0 0 14.8-36 20.46 20.46 0 0 0 -14.9-6.1 21 21 0 0 0 -20.7 17.6 1.22 1.22 0 0 1 -2.4-.4 23.61 23.61 0 1 1 40.1 20.5 24.7 24.7 0 0 1 -16.9 6.9z"/></g></svg>